<svg xmlns="http://www.w3.org/2000/svg"><defs> <path id="stumbleupon-path-1" d="M0,0.0749333333 L31.9250667,0.0749333333 L31.9250667,31.984 L0,31.984"/> </defs><symbol viewBox="0 0 24 24" id="icon-add"><path d="M19 13h-6v6h-2v-6H5v-2h6V5h2v6h6v2z"/></symbol><symbol viewBox="0 0 20 19" id="icon-admin-brush"> <path d="M5 12C3.34 12 2 13.34 2 15C2 16.31 0.84 17 0 17C0.92 18.22 2.49 19 4 19C6.21 19 8 17.21 8 15C8 13.34 6.66 12 5 12ZM18.71 2.63L17.37 1.29C16.98 0.899999 16.35 0.899999 15.96 1.29L7 10.25L9.75 13L18.71 4.04C19.1 3.65 19.1 3.02 18.71 2.63Z" fill="#3E67F8"/> </symbol><symbol viewBox="0 0 12 8" id="icon-admin-close"> <path d="M5.28997 0.70998L0.699971 5.29998C0.309971 5.68998 0.309971 6.31998 0.699971 6.70998C1.08997 7.09998 1.71997 7.09998 2.10997 6.70998L5.99997 2.82998L9.87997 6.70998C10.27 7.09998 10.9 7.09998 11.29 6.70998C11.68 6.31998 11.68 5.68998 11.29 5.29998L6.69997 0.70998C6.31997 0.31998 5.67997 0.31998 5.28997 0.70998Z" fill="#5E637A"/> </symbol><symbol viewBox="0 0 19 19" id="icon-admin-edit"> <path d="M0 15.46V18.5C0 18.78 0.22 19 0.5 19H3.54C3.67 19 3.8 18.95 3.89 18.85L14.81 7.94L11.06 4.19L0.15 15.1C0.0500001 15.2 0 15.32 0 15.46ZM17.71 5.04C18.1 4.65 18.1 4.02 17.71 3.63L15.37 1.29C14.98 0.899999 14.35 0.899999 13.96 1.29L12.13 3.12L15.88 6.87L17.71 5.04Z" fill="#3E67F8"/> </symbol><symbol viewBox="0 0 18 18" id="icon-admin-link"> <path d="M15 16H3C2.45 16 2 15.55 2 15V3C2 2.45 2.45 2 3 2H8C8.55 2 9 1.55 9 1C9 0.45 8.55 0 8 0H2C0.89 0 0 0.9 0 2V16C0 17.1 0.9 18 2 18H16C17.1 18 18 17.1 18 16V10C18 9.45 17.55 9 17 9C16.45 9 16 9.45 16 10V15C16 15.55 15.55 16 15 16ZM11 1C11 1.55 11.45 2 12 2H14.59L5.46 11.13C5.07 11.52 5.07 12.15 5.46 12.54C5.85 12.93 6.48 12.93 6.87 12.54L16 3.41V6C16 6.55 16.45 7 17 7C17.55 7 18 6.55 18 6V0H12C11.45 0 11 0.45 11 1Z" fill="#3E67F8"/> </symbol><symbol viewBox="0 0 20 20" id="icon-admin-tooltip"> <path d="M10 0C4.48 0 0 4.48 0 10C0 15.52 4.48 20 10 20C15.52 20 20 15.52 20 10C20 4.48 15.52 0 10 0ZM10 15C9.45 15 9 14.55 9 14V10C9 9.45 9.45 9 10 9C10.55 9 11 9.45 11 10V14C11 14.55 10.55 15 10 15ZM11 7H9V5H11V7Z" fill="#5E637A"/> </symbol><symbol viewBox="0 0 36 36" id="icon-arrow-down"> <path d="M16.5 6v18.26l-8.38-8.38-2.12 2.12 12 12 12-12-2.12-2.12-8.38 8.38v-18.26h-3z"/> </symbol><symbol viewBox="0 0 12 8" id="icon-chevron-down"><path d="M6 6.174l5.313-4.96.23-.214.457.427-.23.214-5.51 5.146L6.03 7 6 6.972 5.97 7l-.23-.214L.23 1.64 0 1.428.458 1l.23.214L6 6.174z" stroke-linecap="square" fill-rule="evenodd"/></symbol><symbol viewBox="0 0 24 24" id="icon-chevron-left"><path d="M15.41 7.41L14 6l-6 6 6 6 1.41-1.41L10.83 12z"/></symbol><symbol viewBox="0 0 24 24" id="icon-chevron-right"><path d="M10 6L8.59 7.41 13.17 12l-4.58 4.59L10 18l6-6z"/></symbol><symbol viewBox="0 0 24 24" id="icon-close"><path d="M19 6.41L17.59 5 12 10.59 6.41 5 5 6.41 10.59 12 5 17.59 6.41 19 12 13.41 17.59 19 19 17.59 13.41 12z"/></symbol><symbol viewBox="0 0 28 28" id="icon-envelope"> <path d="M0 23.5v-12.406q0.688 0.766 1.578 1.359 5.656 3.844 7.766 5.391 0.891 0.656 1.445 1.023t1.477 0.75 1.719 0.383h0.031q0.797 0 1.719-0.383t1.477-0.75 1.445-1.023q2.656-1.922 7.781-5.391 0.891-0.609 1.563-1.359v12.406q0 1.031-0.734 1.766t-1.766 0.734h-23q-1.031 0-1.766-0.734t-0.734-1.766zM0 6.844q0-1.219 0.648-2.031t1.852-0.812h23q1.016 0 1.758 0.734t0.742 1.766q0 1.234-0.766 2.359t-1.906 1.922q-5.875 4.078-7.313 5.078-0.156 0.109-0.664 0.477t-0.844 0.594-0.812 0.508-0.898 0.422-0.781 0.141h-0.031q-0.359 0-0.781-0.141t-0.898-0.422-0.812-0.508-0.844-0.594-0.664-0.477q-1.422-1-4.094-2.852t-3.203-2.227q-0.969-0.656-1.828-1.805t-0.859-2.133z"/> </symbol><symbol viewBox="0 0 32 32" id="icon-facebook"> <path d="M2.428 0.41c-0.936 0-1.695 0.753-1.695 1.682v27.112c0 0.929 0.759 1.682 1.695 1.682h14.709v-11.802h-4.002v-4.599h4.002v-3.392c0-3.936 2.423-6.080 5.961-6.080 1.695 0 3.152 0.125 3.576 0.181v4.114l-2.454 0.001c-1.924 0-2.297 0.907-2.297 2.239v2.937h4.59l-0.598 4.599h-3.992v11.802h7.826c0.936 0 1.695-0.753 1.695-1.682v-27.112c0-0.929-0.759-1.682-1.695-1.682h-27.321z"/> </symbol><symbol viewBox="0 0 20 28" id="icon-google"> <path d="M1.734 21.156q0-1.266 0.695-2.344t1.852-1.797q2.047-1.281 6.312-1.563-0.5-0.641-0.742-1.148t-0.242-1.148q0-0.625 0.328-1.328-0.719 0.063-1.062 0.063-2.312 0-3.898-1.508t-1.586-3.82q0-1.281 0.562-2.484t1.547-2.047q1.188-1.031 2.844-1.531t3.406-0.5h6.516l-2.141 1.375h-2.063q1.172 0.984 1.766 2.078t0.594 2.5q0 1.125-0.383 2.023t-0.93 1.453-1.086 1.016-0.922 0.961-0.383 1.031q0 0.562 0.5 1.102t1.203 1.062 1.414 1.148 1.211 1.625 0.5 2.219q0 1.422-0.766 2.703-1.109 1.906-3.273 2.805t-4.664 0.898q-2.063 0-3.852-0.648t-2.695-2.148q-0.562-0.922-0.562-2.047zM4.641 20.438q0 0.875 0.367 1.594t0.953 1.18 1.359 0.781 1.563 0.453 1.586 0.133q0.906 0 1.742-0.203t1.547-0.609 1.141-1.141 0.43-1.703q0-0.391-0.109-0.766t-0.227-0.656-0.422-0.648-0.461-0.547-0.602-0.539-0.57-0.453-0.648-0.469-0.57-0.406q-0.25-0.031-0.766-0.031-0.828 0-1.633 0.109t-1.672 0.391-1.516 0.719-1.070 1.164-0.422 1.648zM6.297 4.906q0 0.719 0.156 1.523t0.492 1.609 0.812 1.445 1.172 1.047 1.508 0.406q0.578 0 1.211-0.258t1.023-0.68q0.828-0.875 0.828-2.484 0-0.922-0.266-1.961t-0.75-2.016-1.313-1.617-1.828-0.641q-0.656 0-1.289 0.305t-1.039 0.82q-0.719 0.922-0.719 2.5z"/> </symbol><symbol viewBox="0 0 32 32" id="icon-instagram"> <path d="M25.522709,13.5369502 C25.7256898,14.3248434 25.8455558,15.1480745 25.8455558,15.9992932 C25.8455558,21.4379334 21.4376507,25.8455558 15.9998586,25.8455558 C10.5623493,25.8455558 6.15416148,21.4379334 6.15416148,15.9992932 C6.15416148,15.1480745 6.27459295,14.3248434 6.4775737,13.5369502 L3.6915357,13.5369502 L3.6915357,27.0764447 C3.6915357,27.7552145 4.24280653,28.3062027 4.92355534,28.3062027 L27.0764447,28.3062027 C27.7571935,28.3062027 28.3084643,27.7552145 28.3084643,27.0764447 L28.3084643,13.5369502 L25.522709,13.5369502 Z M27.0764447,3.6915357 L23.384909,3.6915357 C22.7050083,3.6915357 22.1543028,4.24280653 22.1543028,4.92214183 L22.1543028,8.61509104 C22.1543028,9.29442633 22.7050083,9.84569717 23.384909,9.84569717 L27.0764447,9.84569717 C27.7571935,9.84569717 28.3084643,9.29442633 28.3084643,8.61509104 L28.3084643,4.92214183 C28.3084643,4.24280653 27.7571935,3.6915357 27.0764447,3.6915357 Z M9.84597988,15.9992932 C9.84597988,19.3976659 12.6009206,22.1537374 15.9998586,22.1537374 C19.3987967,22.1537374 22.1543028,19.3976659 22.1543028,15.9992932 C22.1543028,12.6003551 19.3987967,9.84569717 15.9998586,9.84569717 C12.6009206,9.84569717 9.84597988,12.6003551 9.84597988,15.9992932 Z M3.6915357,31.9997173 C1.65296441,31.9997173 0,30.3461875 0,28.3062027 L0,3.6915357 C0,1.6526817 1.65296441,0 3.6915357,0 L28.3084643,0 C30.3473183,0 32,1.6526817 32,3.6915357 L32,28.3062027 C32,30.3461875 30.3473183,31.9997173 28.3084643,31.9997173 L3.6915357,31.9997173 Z" id="instagram-Imported-Layers"/> </symbol><symbol viewBox="0 0 24 24" id="icon-keyboard-arrow-down"><path d="M7.41 7.84L12 12.42l4.59-4.58L18 9.25l-6 6-6-6z"/></symbol><symbol viewBox="0 0 24 24" id="icon-keyboard-arrow-up"><path d="M7.41 15.41L12 10.83l4.59 4.58L18 14l-6-6-6 6z"/></symbol><symbol viewBox="0 0 32 32" id="icon-linkedin"> <path d="M27.2684444,27.2675556 L22.5226667,27.2675556 L22.5226667,19.8408889 C22.5226667,18.0702222 22.4924444,15.792 20.0568889,15.792 C17.5866667,15.792 17.2097778,17.7217778 17.2097778,19.7146667 L17.2097778,27.2675556 L12.4693333,27.2675556 L12.4693333,11.9964444 L17.0186667,11.9964444 L17.0186667,14.0844444 L17.0844444,14.0844444 C17.7173333,12.8835556 19.2657778,11.6177778 21.5742222,11.6177778 C26.3804444,11.6177778 27.2684444,14.7795556 27.2684444,18.8924444 L27.2684444,27.2675556 L27.2684444,27.2675556 Z M7.11822222,9.91022222 C5.59377778,9.91022222 4.36444444,8.67733333 4.36444444,7.15733333 C4.36444444,5.63822222 5.59377778,4.40533333 7.11822222,4.40533333 C8.63644444,4.40533333 9.86844444,5.63822222 9.86844444,7.15733333 C9.86844444,8.67733333 8.63644444,9.91022222 7.11822222,9.91022222 L7.11822222,9.91022222 Z M4.74133333,11.9964444 L9.49244444,11.9964444 L9.49244444,27.2675556 L4.74133333,27.2675556 L4.74133333,11.9964444 Z M29.632,0 L2.36,0 C1.05777778,0 0,1.03288889 0,2.30755556 L0,29.6906667 C0,30.9653333 1.05777778,32 2.36,32 L29.632,32 C30.9368889,32 31.9991111,30.9653333 31.9991111,29.6906667 L31.9991111,2.30755556 C31.9991111,1.03288889 30.9368889,0 29.632,0 L29.632,0 Z" id="linkedin-Fill-4"/> </symbol><symbol viewBox="0 0 24 24" id="icon-lock"><path d="M18 8h-1V6c0-2.76-2.24-5-5-5S7 3.24 7 6v2H6c-1.1 0-2 .9-2 2v10c0 1.1.9 2 2 2h12c1.1 0 2-.9 2-2V10c0-1.1-.9-2-2-2zm-6 9c-1.1 0-2-.9-2-2s.9-2 2-2 2 .9 2 2-.9 2-2 2zm3.1-9H8.9V6c0-1.71 1.39-3.1 3.1-3.1 1.71 0 3.1 1.39 3.1 3.1v2z"/></symbol><symbol viewBox="0 0 176.515 33.863" id="icon-logo-amazonpay"> <path d=" M 69.652 26.489 C 63.129 31.303 53.672 33.863 45.528 33.863 C 34.115 33.863 23.837 29.644 16.059 22.621 C 15.449 22.069 15.993 21.316 16.727 21.743 C 25.118 26.626 35.496 29.567 46.213 29.567 C 53.443 29.567 61.391 28.066 68.704 24.964 C 69.807 24.497 70.732 25.691 69.652 26.489 Z " fill-rule="evenodd"/> <path d=" M 72.367 23.389 C 71.532 22.321 66.852 22.883 64.749 23.135 C 64.112 23.212 64.013 22.655 64.587 22.252 C 68.321 19.629 74.44 20.386 75.151 21.265 C 75.867 22.15 74.962 28.285 71.464 31.212 C 70.925 31.662 70.413 31.422 70.652 30.828 C 71.44 28.861 73.202 24.459 72.367 23.389 Z " fill-rule="evenodd"/> <path d=" M 64.897 3.724 L 64.897 1.176 C 64.899 0.788 65.191 0.53 65.543 0.531 L 76.965 0.53 C 77.33 0.53 77.624 0.795 77.624 1.173 L 77.624 3.358 C 77.62 3.725 77.311 4.203 76.764 4.962 L 70.847 13.41 C 73.043 13.359 75.366 13.688 77.362 14.809 C 77.812 15.062 77.933 15.437 77.968 15.804 L 77.968 18.523 C 77.968 18.898 77.558 19.331 77.126 19.106 C 73.611 17.264 68.946 17.063 65.058 19.128 C 64.661 19.34 64.246 18.912 64.246 18.537 L 64.246 15.952 C 64.246 15.539 64.254 14.831 64.671 14.201 L 71.525 4.367 L 65.557 4.366 C 65.192 4.366 64.899 4.106 64.897 3.724 Z " fill-rule="evenodd"/> <path d=" M 23.233 19.641 L 19.758 19.641 C 19.427 19.62 19.163 19.372 19.136 19.054 L 19.139 1.219 C 19.139 0.863 19.439 0.578 19.81 0.578 L 23.046 0.577 C 23.384 0.594 23.656 0.85 23.677 1.176 L 23.677 3.504 L 23.743 3.504 C 24.586 1.252 26.175 0.201 28.316 0.201 C 30.489 0.201 31.852 1.252 32.825 3.504 C 33.668 1.252 35.582 0.201 37.625 0.201 C 39.085 0.201 40.674 0.802 41.647 2.153 C 42.75 3.655 42.524 5.831 42.524 7.745 L 42.52 19 C 42.52 19.355 42.221 19.641 41.85 19.641 L 38.38 19.641 C 38.03 19.619 37.756 19.343 37.756 19.001 L 37.755 9.546 C 37.755 8.796 37.82 6.92 37.657 6.207 C 37.398 5.005 36.62 4.667 35.615 4.667 C 34.771 4.667 33.895 5.23 33.538 6.13 C 33.181 7.032 33.214 8.532 33.214 9.546 L 33.214 19 C 33.214 19.355 32.914 19.641 32.544 19.641 L 29.073 19.641 C 28.724 19.619 28.449 19.343 28.449 19.001 L 28.445 9.546 C 28.445 7.557 28.77 4.631 26.305 4.631 C 23.807 4.631 23.905 7.482 23.905 9.546 L 23.903 19 C 23.903 19.355 23.603 19.641 23.233 19.641 Z " fill-rule="evenodd"/> <path d=" M 87.488 3.842 C 84.926 3.842 84.764 7.331 84.764 9.508 C 84.764 11.685 84.732 16.339 87.457 16.339 C 90.149 16.339 90.279 12.586 90.279 10.297 C 90.279 8.796 90.213 6.994 89.759 5.568 C 89.37 4.329 88.591 3.842 87.488 3.842 Z  M 87.457 0.201 C 92.614 0.201 95.403 4.631 95.403 10.26 C 95.403 15.7 92.322 20.017 87.457 20.017 C 82.396 20.017 79.639 15.588 79.639 10.072 C 79.639 4.517 82.428 0.201 87.457 0.201 Z " fill-rule="evenodd"/> <path d=" M 102.092 19.641 L 98.629 19.641 C 98.282 19.619 98.006 19.343 98.006 19.001 L 98 1.16 C 98.03 0.833 98.318 0.578 98.668 0.578 L 101.891 0.577 C 102.195 0.593 102.445 0.799 102.509 1.076 L 102.509 3.804 L 102.574 3.804 C 103.548 1.364 104.909 0.201 107.309 0.201 C 108.866 0.201 110.391 0.764 111.364 2.303 C 112.272 3.729 112.272 6.13 112.272 7.857 L 112.272 19.08 C 112.234 19.396 111.95 19.641 111.606 19.641 L 108.123 19.641 C 107.801 19.621 107.542 19.384 107.504 19.08 L 107.504 9.397 C 107.504 7.445 107.732 4.592 105.331 4.592 C 104.488 4.592 103.709 5.155 103.32 6.018 C 102.833 7.107 102.768 8.195 102.768 9.397 L 102.768 19 C 102.762 19.355 102.462 19.641 102.092 19.641 Z " fill-rule="evenodd"/> <path d=" M 59.294 19.597 C 59.065 19.803 58.734 19.817 58.474 19.678 C 57.32 18.719 57.113 18.276 56.482 17.362 C 54.575 19.305 53.224 19.888 50.753 19.888 C 47.828 19.888 45.552 18.082 45.552 14.472 C 45.552 11.651 47.081 9.733 49.258 8.793 C 51.143 7.965 53.776 7.815 55.792 7.589 L 55.792 7.138 C 55.792 6.309 55.857 5.333 55.369 4.618 C 54.946 3.978 54.134 3.715 53.419 3.715 C 52.093 3.715 50.916 4.394 50.626 5.801 C 50.565 6.114 50.337 6.425 50.023 6.441 L 46.654 6.076 C 46.37 6.011 46.054 5.783 46.135 5.349 C 46.9 1.32 50.498 0.064 53.768 0.03 L 54.026 0.03 C 55.7 0.051 57.838 0.51 59.14 1.759 C 60.831 3.339 60.667 5.445 60.667 7.74 L 60.667 13.153 C 60.667 14.782 61.344 15.496 61.979 16.373 C 62.202 16.69 62.251 17.065 61.968 17.297 C 61.258 17.892 59.997 18.987 59.304 19.605 L 59.294 19.597 Z  M 55.792 11.125 C 55.792 12.479 55.824 13.607 55.142 14.811 C 54.589 15.788 53.711 16.39 52.736 16.39 C 51.404 16.39 50.624 15.375 50.624 13.87 C 50.624 10.91 53.278 10.372 55.792 10.372 L 55.792 11.125 Z " fill-rule="evenodd"/> <path d=" M 13.743 19.597 C 13.513 19.803 13.181 19.817 12.922 19.678 C 11.767 18.719 11.56 18.276 10.93 17.362 C 9.022 19.305 7.672 19.888 5.201 19.888 C 2.276 19.888 0 18.082 0 14.472 C 0 11.651 1.527 9.733 3.706 8.793 C 5.591 7.965 8.224 7.815 10.239 7.589 L 10.239 7.138 C 10.239 6.309 10.305 5.333 9.817 4.618 C 9.394 3.978 8.581 3.715 7.867 3.715 C 6.541 3.715 5.362 4.394 5.074 5.801 C 5.014 6.114 4.785 6.425 4.47 6.441 L 1.102 6.076 C 0.817 6.011 0.501 5.783 0.583 5.349 C 1.346 1.32 4.945 0.064 8.216 0.03 L 8.474 0.03 C 10.148 0.051 12.286 0.51 13.588 1.759 C 15.278 3.339 15.115 5.445 15.115 7.74 L 15.115 13.153 C 15.115 14.782 15.792 15.496 16.427 16.373 C 16.648 16.69 16.699 17.065 16.416 17.297 C 15.706 17.892 14.444 18.987 13.751 19.605 L 13.743 19.597 Z  M 10.239 11.125 C 10.239 12.479 10.272 13.607 9.589 14.811 C 9.037 15.788 8.159 16.39 7.183 16.39 C 5.851 16.39 5.071 15.375 5.071 13.87 C 5.071 10.91 7.726 10.372 10.239 10.372 L 10.239 11.125 Z " fill-rule="evenodd"/> <path d=" M 159.773 26.039 C 159.773 25.587 159.773 25.181 159.773 24.729 C 159.773 24.356 159.956 24.099 160.345 24.122 C 161.071 24.225 162.098 24.328 162.827 24.178 C 163.779 23.98 164.462 23.305 164.866 22.38 C 165.435 21.078 165.812 20.028 166.05 19.339 L 158.821 1.431 C 158.699 1.127 158.663 0.563 159.27 0.563 L 161.797 0.563 C 162.279 0.563 162.475 0.869 162.583 1.169 L 167.824 15.715 L 172.827 1.169 C 172.929 0.871 173.134 0.563 173.612 0.563 L 175.995 0.563 C 176.598 0.563 176.564 1.126 176.444 1.431 L 169.273 19.898 C 168.345 22.356 167.109 26.271 164.325 26.951 C 162.929 27.316 161.168 27.184 160.134 26.751 C 159.873 26.62 159.773 26.27 159.773 26.039 Z " fill-rule="evenodd"/> <path d=" M 156.402 18.55 C 156.402 18.883 156.129 19.156 155.794 19.156 L 154.012 19.156 C 153.627 19.156 153.364 18.878 153.315 18.55 L 153.136 17.337 C 152.317 18.03 151.312 18.639 150.222 19.063 C 148.126 19.877 145.71 20.012 143.662 18.754 C 142.181 17.845 141.395 16.068 141.395 14.235 C 141.395 12.817 141.832 11.411 142.801 10.39 C 144.094 8.995 145.968 8.31 148.231 8.31 C 149.598 8.31 151.554 8.471 152.977 8.936 L 152.977 6.495 C 152.977 4.013 151.932 2.939 149.177 2.939 C 147.071 2.939 145.46 3.257 143.218 3.954 C 142.859 3.966 142.649 3.693 142.649 3.36 L 142.649 1.968 C 142.649 1.634 142.934 1.311 143.243 1.213 C 144.844 0.515 147.112 0.08 149.523 0 C 152.666 0 156.402 0.709 156.402 5.543 L 156.402 18.55 Z  M 152.977 14.986 L 152.977 11.303 C 151.781 10.976 149.802 10.84 149.036 10.84 C 147.826 10.84 146.501 11.126 145.809 11.871 C 145.292 12.417 145.058 13.201 145.058 13.959 C 145.058 14.939 145.397 15.922 146.189 16.408 C 147.109 17.033 148.536 16.957 149.877 16.576 C 151.166 16.21 152.376 15.563 152.977 14.986 Z " fill-rule="evenodd"/> <path d=" M 130.127 2.994 C 134.081 2.994 135.158 6.103 135.158 9.663 C 135.18 12.063 134.739 14.203 133.496 15.428 C 132.566 16.345 131.527 16.595 129.963 16.595 C 128.571 16.595 126.74 15.869 125.372 14.858 L 125.372 4.679 C 126.796 3.585 128.613 2.994 130.127 2.994 Z  M 124.766 26.678 L 122.379 26.678 C 122.045 26.678 121.772 26.405 121.772 26.072 C 121.772 17.782 121.772 9.491 121.772 1.201 C 121.772 0.868 122.045 0.595 122.379 0.595 L 124.206 0.595 C 124.59 0.595 124.853 0.873 124.902 1.201 L 125.094 2.504 C 126.805 0.985 129.008 0.011 131.107 0.011 C 136.986 0.011 138.919 4.855 138.919 9.892 C 138.919 15.281 135.962 19.611 130.961 19.611 C 128.855 19.611 126.886 18.834 125.372 17.484 L 125.372 26.072 C 125.372 26.405 125.099 26.678 124.766 26.678 Z " fill-rule="evenodd"/></symbol><symbol viewBox="0 0 70 32" id="icon-logo-american-express"> <path d="M69.102 17.219l0.399 9.094c-0.688 0.313-3.285 1.688-4.26 1.688h-4.788v-0.656c-0.546 0.438-1.549 0.656-2.467 0.656h-15.053v-2.466c0-0.344-0.057-0.344-0.345-0.344h-0.257v2.81h-4.961v-2.924c-0.832 0.402-1.749 0.402-2.581 0.402h-0.544v2.523h-6.050l-1.434-1.656-1.577 1.656h-9.72v-10.781h9.892l1.405 1.663 1.548-1.663h6.652c0.775 0 2.037 0.115 2.581 0.66v-0.66h5.936c0.602 0 1.749 0.115 2.523 0.66v-0.66h8.946v0.66c0.516-0.43 1.433-0.66 2.265-0.66h4.988v0.66c0.546-0.372 1.32-0.66 2.323-0.66h4.578zM34.905 23.871c1.577 0 3.183-0.43 3.183-2.581 0-2.093-1.635-2.523-3.069-2.523h-5.878l-2.38 2.523-2.236-2.523h-7.427v7.67h7.312l2.351-2.509 2.266 2.509h3.556v-2.566h2.322zM46.001 23.556c-0.172-0.23-0.487-0.516-0.946-0.66 0.516-0.172 1.318-0.832 1.318-2.036 0-0.889-0.315-1.377-0.917-1.721-0.602-0.315-1.319-0.372-2.266-0.372h-4.215v7.67h1.864v-2.796h1.978c0.66 0 1.032 0.058 1.319 0.344 0.316 0.373 0.316 1.032 0.316 1.548v0.903h1.836v-1.477c0-0.688-0.058-1.032-0.288-1.405zM53.571 20.373v-1.605h-6.136v7.67h6.136v-1.563h-4.33v-1.549h4.244v-1.548h-4.244v-1.405h4.33zM58.245 26.438c1.864 0 2.926-0.759 2.926-2.393 0-0.774-0.23-1.262-0.545-1.664-0.459-0.372-1.119-0.602-2.151-0.602h-1.004c-0.258 0-0.487-0.057-0.717-0.115-0.201-0.086-0.373-0.258-0.373-0.545 0-0.258 0.058-0.43 0.287-0.602 0.143-0.115 0.373-0.115 0.717-0.115h3.383v-1.634h-3.671c-1.978 0-2.638 1.204-2.638 2.294 0 2.438 2.151 2.322 3.842 2.38 0.344 0 0.544 0.058 0.66 0.173 0.115 0.086 0.23 0.315 0.23 0.544 0 0.201-0.115 0.373-0.23 0.488-0.173 0.115-0.373 0.172-0.717 0.172h-3.555v1.62h3.555zM65.442 26.439c1.864 0 2.924-0.76 2.924-2.394 0-0.774-0.229-1.262-0.544-1.664-0.459-0.372-1.119-0.602-2.151-0.602h-1.003c-0.258 0-0.488-0.057-0.718-0.115-0.201-0.086-0.373-0.258-0.373-0.545 0-0.258 0.115-0.43 0.287-0.602 0.144-0.115 0.373-0.115 0.717-0.115h3.383v-1.634h-3.671c-1.921 0-2.638 1.204-2.638 2.294 0 2.438 2.151 2.322 3.842 2.38 0.344 0 0.544 0.058 0.66 0.174 0.115 0.086 0.229 0.315 0.229 0.544 0 0.201-0.114 0.373-0.229 0.488s-0.373 0.172-0.717 0.172h-3.556v1.62h3.556zM43.966 20.518c0.23 0.115 0.373 0.344 0.373 0.659 0 0.344-0.143 0.602-0.373 0.774-0.287 0.115-0.545 0.115-0.889 0.115l-2.237 0.058v-1.749h2.237c0.344 0 0.659 0 0.889 0.143zM36.108 8.646c-0.287 0.172-0.544 0.172-0.918 0.172h-2.265v-1.692h2.265c0.316 0 0.688 0 0.918 0.114 0.23 0.144 0.344 0.374 0.344 0.718 0 0.315-0.114 0.602-0.344 0.689zM50.789 6.839l1.262 3.039h-2.523zM30.775 25.792l-2.838-3.183 2.838-3.011v6.193zM35.019 20.373c0.66 0 1.090 0.258 1.090 0.918s-0.43 1.032-1.090 1.032h-2.437v-1.95h2.437zM5.773 9.878l1.291-3.039 1.262 3.039h-2.552zM18.905 20.372l4.616 0 2.036 2.237-2.093 2.265h-4.559v-1.549h4.071v-1.548h-4.071v-1.405zM19.077 13.376l-0.545 1.377h-3.24l-0.546-1.319v1.319h-6.222l-0.66-1.749h-1.577l-0.717 1.749h-5.572l2.389-5.649 2.237-5.104h4.789l0.659 1.262v-1.262h5.591l1.262 2.724 1.233-2.724h17.835c0.832 0 1.548 0.143 2.093 0.602v-0.602h4.903v0.602c0.803-0.459 1.864-0.602 3.068-0.602h7.082l0.66 1.262v-1.262h5.218l0.775 1.262v-1.262h5.103v10.753h-5.161l-1.003-1.635v1.635h-6.423l-0.717-1.749h-1.577l-0.717 1.749h-3.355c-1.318 0-2.294-0.316-2.954-0.659v0.659h-7.971v-2.466c0-0.344-0.057-0.402-0.286-0.402h-0.258v2.867h-15.398v-1.377zM43.363 6.409c-0.832 0.831-0.975 1.864-1.004 3.011 0 1.377 0.344 2.266 0.947 2.925 0.659 0.66 1.806 0.86 2.695 0.86h2.151l0.716-1.692h3.843l0.717 1.692h3.727v-5.763l3.47 5.763h2.638v-7.684h-1.892v5.333l-3.24-5.333h-2.839v7.254l-3.096-7.254h-2.724l-2.638 6.050h-0.832c-0.487 0-1.003-0.115-1.262-0.373-0.344-0.402-0.488-1.004-0.488-1.836 0-0.803 0.144-1.405 0.488-1.748 0.373-0.316 0.774-0.431 1.434-0.431h1.749v-1.663h-1.749c-1.262 0-2.265 0.286-2.81 0.889zM39.579 5.52v7.684h1.863v-7.684h-1.863zM31.12 5.52l-0 7.685h1.806v-2.781h1.979c0.66 0 1.090 0.057 1.376 0.315 0.316 0.401 0.258 1.061 0.258 1.491v0.975h1.892v-1.519c0-0.66-0.057-1.004-0.344-1.377-0.172-0.229-0.487-0.488-0.889-0.659 0.516-0.23 1.319-0.832 1.319-2.036 0-0.889-0.373-1.377-0.976-1.75-0.602-0.344-1.262-0.344-2.208-0.344h-4.215zM23.636 5.521v7.685h6.165v-1.577h-4.301v-1.549h4.244v-1.577h-4.244v-1.377h4.301v-1.606h-6.165zM16.124 13.205h1.577l2.695-6.021v6.021h1.864v-7.684h-3.011l-2.265 5.219-2.409-5.219h-2.953v7.254l-3.154-7.254h-2.724l-3.297 7.684h1.978l0.688-1.692h3.871l0.688 1.692h3.756v-6.021z"/> </symbol><symbol viewBox="0 0 95 32" id="icon-logo-discover"> <path d="M50.431 8.059c4.546 0 8.092 3.49 8.092 7.936 0 4.471-3.571 7.961-8.093 7.961-4.638 0-8.115-3.444-8.115-8.051 0-4.334 3.635-7.845 8.115-7.845zM4.362 8.345c4.811 0 8.168 3.133 8.168 7.64 0 2.247-1.028 4.422-2.761 5.864-1.461 1.214-3.126 1.761-5.429 1.761h-4.339v-15.265h4.362zM7.832 19.81c1.027-0.912 1.639-2.379 1.639-3.847 0-1.464-0.612-2.882-1.639-3.798-0.984-0.892-2.146-1.235-4.065-1.235h-0.797v10.096h0.797c1.919 0 3.127-0.367 4.065-1.216zM13.9 23.611v-15.265h2.965v15.265h-2.965zM24.123 14.201c3.378 1.238 4.379 2.338 4.379 4.764 0 2.952-2.166 5.015-5.247 5.015-2.261 0-3.904-0.896-5.271-2.907l1.914-1.856c0.685 1.328 1.825 2.036 3.24 2.036 1.325 0 2.308-0.915 2.308-2.152 0-0.641-0.298-1.189-0.891-1.578-0.297-0.187-0.889-0.46-2.054-0.87-2.784-1.010-3.742-2.085-3.742-4.192 0-2.493 2.055-4.371 4.745-4.371 1.667 0 3.196 0.571 4.473 1.696l-1.549 2.033c-0.778-0.867-1.508-1.233-2.398-1.233-1.28 0-2.213 0.732-2.213 1.694 0 0.821 0.525 1.258 2.307 1.921zM29.438 15.986c0-4.436 3.605-7.985 8.101-7.985 1.278 0 2.352 0.273 3.653 0.935v3.504c-1.233-1.213-2.308-1.717-3.72-1.717-2.787 0-4.976 2.313-4.976 5.241 0 3.092 2.123 5.267 5.112 5.267 1.347 0 2.397-0.48 3.585-1.671v3.504c-1.347 0.638-2.443 0.892-3.72 0.892-4.519 0-8.034-3.478-8.034-7.97zM65.239 18.601l4.11-10.254h3.216l-6.573 15.655h-1.596l-6.46-15.655h3.24zM73.914 23.612v-15.265h8.418v2.585h-5.453v3.388h5.244v2.585h-5.244v4.123h5.453v2.584h-8.418zM94.081 12.852c0 2.336-1.23 3.87-3.469 4.329l4.794 6.43h-3.651l-4.105-6.135h-0.388v6.135h-2.969v-15.265h4.404c3.425 0 5.384 1.645 5.384 4.506zM88.125 15.372c1.9 0 2.903-0.827 2.903-2.359 0-1.486-1.004-2.266-2.856-2.266h-0.911v4.626h0.863z"/> </symbol><symbol viewBox="0 0 435.97 173.13" id="icon-logo-googlepay"> <path d="M206.2,84.58v50.75H190.1V10h42.7a38.61,38.61,0,0,1,27.65,10.85A34.88,34.88,0,0,1,272,47.3a34.72,34.72,0,0,1-11.55,26.6q-11.2,10.68-27.65,10.67H206.2Zm0-59.15V69.18h27a21.28,21.28,0,0,0,15.93-6.48,21.36,21.36,0,0,0,0-30.63,21,21,0,0,0-15.93-6.65h-27Z"/> <path d="M309.1,46.78q17.85,0,28.18,9.54T347.6,82.48v52.85H332.2v-11.9h-.7q-10,14.7-26.6,14.7-14.17,0-23.71-8.4a26.82,26.82,0,0,1-9.54-21q0-13.31,10.06-21.17t26.86-7.88q14.34,0,23.62,5.25V81.25A18.33,18.33,0,0,0,325.54,67,22.8,22.8,0,0,0,310,61.13q-13.49,0-21.35,11.38l-14.18-8.93Q286.17,46.78,309.1,46.78Zm-20.83,62.3a12.86,12.86,0,0,0,5.34,10.5,19.64,19.64,0,0,0,12.51,4.2,25.67,25.67,0,0,0,18.11-7.52q8-7.53,8-17.67-7.53-6-21-6-9.81,0-16.36,4.73C290.46,100.52,288.27,104.41,288.27,109.08Z"/> <path d="M436,49.58,382.24,173.13H365.62l19.95-43.23L350.22,49.58h17.5l25.55,61.6h.35l24.85-61.6Z"/> <path d="M141.14,73.64A85.79,85.79,0,0,0,139.9,59H72V86.73h38.89a33.33,33.33,0,0,1-14.38,21.88v18h23.21C133.31,114.08,141.14,95.55,141.14,73.64Z"/> <path d="M72,144c19.43,0,35.79-6.38,47.72-17.38l-23.21-18C90.05,113,81.73,115.5,72,115.5c-18.78,0-34.72-12.66-40.42-29.72H7.67v18.55A72,72,0,0,0,72,144Z"/> <path d="M31.58,85.78a43.14,43.14,0,0,1,0-27.56V39.67H7.67a72,72,0,0,0,0,64.66Z"/> <path d="M72,28.5A39.09,39.09,0,0,1,99.62,39.3h0l20.55-20.55A69.18,69.18,0,0,0,72,0,72,72,0,0,0,7.67,39.67L31.58,58.22C37.28,41.16,53.22,28.5,72,28.5Z"/> </symbol><symbol viewBox="0 0 49.866 49.866" id="icon-logo-klarna"><path d="M13.201 18.265h-1.658c-.415.001-.454.042-.454.462v12.291c0 .343.059.4.397.402.542.003 1.085 0 1.629 0 .511 0 .558-.045.558-.549V20.438v-1.715c-.001-.389-.073-.457-.472-.458zM2.339 18.266a85.129 85.129 0 0 0-1.516.001c-.53.008-.823.31-.823.842v11.866c0 .349.047.396.397.396.514.004 1.029.004 1.543 0 .54-.004.811-.273.811-.81V18.695c.001-.347-.072-.426-.412-.429zM9.724 31.072c-.147-1.464-.68-2.763-1.705-3.836-1.104-1.154-2.462-1.789-3.943-1.936-.478-.009-.482-.009-.469.352.005.133.031.264.051.396.265 1.755 1.123 3.153 2.551 4.198.936.688 1.995 1.045 3.148 1.153.343.033.401.009.367-.327zM9.365 18.298c-.131.021-.267.013-.397.033-1.502.239-2.777.904-3.791 2.043-.929 1.042-1.445 2.271-1.567 3.659-.031.362-.011.363.37.412.523-.129 1.067-.208 1.567-.398 2.497-.948 3.863-2.788 4.178-5.428.04-.335-.016-.373-.36-.321zM22.763 24.496c-.038-1.457-.867-2.432-2.269-2.777-1.555-.386-3.096-.16-4.629.167-.182.038-.257.169-.253.36.008.341.002.685.002 1.028 0 .489.064.513.548.484a52.359 52.359 0 0 1 2.964-.098c.59 0 .948.333 1.046.867.031.166.019.342.019.513.002.663.001.669-.653.661-.914-.009-1.825.021-2.71.289-.914.274-1.571.815-1.769 1.789a4.336 4.336 0 0 0 .039 1.896c.212.875.742 1.471 1.608 1.729.962.283 1.915.242 2.83-.201.262-.127.511-.283.804-.446.012.091.021.137.023.184.022.43.076.484.512.484.514.001 1.028.002 1.543 0 .299-.002.405-.097.404-.388-.013-2.181-.002-4.363-.059-6.541zm-2.825 4.912c-.56.217-1.126.334-1.727.23-.374-.064-.648-.286-.68-.666a3.803 3.803 0 0 1 .06-1.044c.073-.362.339-.627.702-.673.592-.073 1.191-.089 1.787-.11.053-.002.154.127.159.201.019.294.008.59.008.885 0 .23-.018.46.005.687.03.264-.073.398-.314.49zM48.592 20.968v.075h.21v.613h.09v-.613h.21v-.075zM49.823 20.968h-.119l-.123.333c-.029.087-.055.162-.072.232h-.001c-.021-.072-.042-.148-.07-.232l-.117-.333h-.113l-.047.688h.084l.02-.296a9.67 9.67 0 0 0 .013-.304h.002c.021.081.047.17.079.267l.112.329h.067l.121-.335c.035-.095.062-.181.086-.261h.002c0 .084.006.202.013.297l.016.303h.09l-.043-.688zM39.115 25.146a7.65 7.65 0 0 0-.18-1.557c-.225-1.055-.83-1.798-1.941-1.992-1.213-.215-2.369-.043-3.41.663-.102.068-.204.13-.379.241-.008-.205-.02-.332-.022-.461-.008-.336-.066-.399-.404-.401-.537-.003-1.069-.004-1.602.001-.314.002-.408.1-.408.413v8.918c0 .349.094.445.436.447.591.002 1.182-.006 1.773.005.264.003.383-.101.378-.372-.01-.59-.003-1.18-.003-1.772 0-1.572-.003-3.144.006-4.716 0-.13.034-.325.121-.379.656-.404 1.36-.652 2.143-.522.431.071.733.324.814.769.057.308.1.621.1.933.012 1.869.006 3.736.006 5.604 0 .407.047.452.464.452.534.003 1.069.003 1.602 0 .461 0 .514-.051.514-.502 0-1.922.013-3.846-.008-5.772zM48.216 25.035a5.978 5.978 0 0 0-.06-.884c-.178-1.14-.789-1.954-1.896-2.323a5.778 5.778 0 0 0-1.446-.293c-1.164-.073-2.314.066-3.453.323-.25.058-.355.194-.354.438v.943c0 .506.07.545.562.519.98-.055 1.959-.099 2.938-.105.632-.002.986.323 1.093.948.048.28.022.571.037.854.01.188-.079.25-.259.244-.41-.006-.825-.041-1.229.008-.695.082-1.4.162-2.072.35-.891.251-1.469.874-1.615 1.812-.059.389-.049.793-.03 1.189.076 1.608 1.303 2.664 2.908 2.534.811-.063 1.575-.256 2.239-.751.045-.032.102-.05.164-.078.029.044.047.055.049.073a.87.87 0 0 1 .017.144c.022.415.049.44.475.44.496.003.99.003 1.486 0 .399 0 .448-.045.448-.438.001-1.982.003-3.965-.002-5.947zm-2.519 3.974c.007.182-.071.278-.23.349-.585.259-1.186.392-1.829.287-.463-.079-.734-.393-.726-.975.015-.989.233-1.436 1.436-1.527.359-.028.724.001 1.085-.007.203-.009.268.086.264.274-.009.276-.004.554-.004.828.002.256-.008.512.004.771zM29.692 21.877c.001-.255-.113-.364-.366-.354a3.64 3.64 0 0 0-2.018.701c-.082.06-.164.115-.287.203-.01-.137-.021-.218-.021-.3-.008-.41-.08-.486-.481-.486-.517-.002-1.029-.001-1.544-.001-.471.001-.549.077-.549.546v8.718c0 .422.093.516.494.516.542.003 1.087.003 1.63 0 .438 0 .508-.066.508-.518.001-2.113.003-4.229-.004-6.347 0-.209.061-.328.253-.419.636-.299 1.288-.523 2.003-.494.262.011.389-.088.383-.365a34.39 34.39 0 0 1-.001-1.4z"/></symbol><symbol viewBox="0 0 57 32" id="icon-logo-paypal"> <path d="M47.11 10.477c2.211-0.037 4.633 0.618 4.072 3.276l-1.369 6.263h-3.159l0.211-0.947c-1.72 1.712-6.038 1.821-5.335-2.111 0.491-2.294 2.878-3.023 6.423-3.023 0.246-1.020-0.457-1.274-1.65-1.238s-2.633 0.437-3.089 0.655l0.281-2.293c0.913-0.182 2.106-0.583 3.615-0.583zM47.32 16.885c0.069-0.291 0.106-0.547 0.176-0.838h-0.773c-0.596 0-1.579 0.146-1.931 0.765-0.456 0.728 0.177 1.348 0.878 1.311 0.807-0.037 1.474-0.401 1.65-1.238zM53.883 8h3.242l-2.646 12.016h-3.209zM39.142 8.037c1.689 0 3.729 1.274 3.131 4.077-0.528 2.476-2.498 3.933-4.89 3.933h-2.428l-0.879 3.969h-3.412l2.603-11.979h5.874zM39.037 12.114c0.211-0.911-0.317-1.638-1.197-1.638h-1.689l-0.704 3.277h1.583c0.88 0 1.795-0.728 2.006-1.638zM16.346 10.476c2.184-0.037 4.611 0.618 4.056 3.276l-1.352 6.262h-3.155l0.208-0.947c-1.664 1.712-5.929 1.821-5.235-2.111 0.486-2.294 2.844-3.023 6.345-3.023 0.208-1.020-0.485-1.274-1.664-1.238s-2.601 0.437-3.017 0.655l0.277-2.293c0.867-0.182 2.046-0.583 3.537-0.583zM16.589 16.885c0.035-0.291 0.104-0.547 0.173-0.838h-0.797c-0.555 0-1.525 0.146-1.872 0.765-0.451 0.728 0.138 1.348 0.832 1.311 0.797-0.037 1.491-0.401 1.664-1.238zM28.528 10.648l3.255-0-7.496 13.351h-3.528l2.306-3.925-1.289-9.426h3.156l0.508 5.579zM8.499 8.036c1.728 0 3.738 1.274 3.139 4.077-0.529 2.476-2.504 3.933-4.867 3.933h-2.468l-0.847 3.969h-3.456l2.609-11.979h5.89zM8.393 12.114c0.247-0.911-0.317-1.638-1.164-1.638h-1.693l-0.741 3.277h1.623c0.882 0 1.763-0.728 1.975-1.638z"/> </symbol><symbol viewBox="0 0 26 26" id="icon-logo-small"><path d="M17.647 12.125h-3.323c-.11 0-.197.087-.197.194v2.327c0 .107.087.193.197.193h3.323c.95 0 1.542-.524 1.542-1.357 0-.795-.594-1.358-1.543-1.358zm-2.62-2.423h3.233c2.51 0 3.988 1.57 3.988 3.296 0 1.35-.915 2.345-1.885 2.78-.155.07-.15.283.01.346 1.128.443 1.94 1.623 1.94 3 0 1.96-1.305 3.512-3.837 3.512h-6.96c-.11 0-.197-.087-.197-.194v-9.03L.237 24.49c-.51.508-.148 1.378.57 1.378h24.254c.446 0 .808-.362.808-.808V.81c0-.72-.87-1.08-1.38-.572L15.03 9.702zm-.703 7.562c-.11 0-.197.087-.197.194v2.56c0 .106.087.193.197.193h3.44c1.05 0 1.682-.542 1.682-1.472 0-.815-.593-1.474-1.68-1.474h-3.442z" fill="#000" fill-rule="evenodd"/></symbol><symbol viewBox="0 0 34 32" id="icon-pinterest"> <path d="M1.356 15.647c0 6.24 3.781 11.6 9.192 13.957-0.043-1.064-0.008-2.341 0.267-3.499 0.295-1.237 1.976-8.303 1.976-8.303s-0.491-0.973-0.491-2.411c0-2.258 1.319-3.945 2.962-3.945 1.397 0 2.071 1.041 2.071 2.288 0 1.393-0.895 3.477-1.356 5.408-0.385 1.616 0.817 2.935 2.424 2.935 2.909 0 4.869-3.708 4.869-8.101 0-3.34-2.267-5.839-6.39-5.839-4.658 0-7.56 3.447-7.56 7.297 0 1.328 0.394 2.264 1.012 2.989 0.284 0.333 0.324 0.467 0.221 0.849-0.074 0.28-0.243 0.955-0.313 1.223-0.102 0.386-0.417 0.524-0.769 0.381-2.145-0.869-3.145-3.201-3.145-5.822 0-4.329 3.679-9.519 10.975-9.519 5.863 0 9.721 4.21 9.721 8.729 0 5.978-3.349 10.443-8.285 10.443-1.658 0-3.217-0.889-3.751-1.899 0 0-0.892 3.511-1.080 4.189-0.325 1.175-0.963 2.349-1.546 3.264 1.381 0.405 2.84 0.625 4.352 0.625 8.48 0 15.355-6.822 15.355-15.238s-6.876-15.238-15.355-15.238c-8.48 0-15.356 6.822-15.356 15.238z"/> </symbol><symbol viewBox="0 0 26 28" id="icon-print"> <path d="M0 21.5v-6.5q0-1.234 0.883-2.117t2.117-0.883h1v-8.5q0-0.625 0.438-1.062t1.062-0.438h10.5q0.625 0 1.375 0.313t1.188 0.75l2.375 2.375q0.438 0.438 0.75 1.188t0.313 1.375v4h1q1.234 0 2.117 0.883t0.883 2.117v6.5q0 0.203-0.148 0.352t-0.352 0.148h-3.5v2.5q0 0.625-0.438 1.062t-1.062 0.438h-15q-0.625 0-1.062-0.438t-0.438-1.062v-2.5h-3.5q-0.203 0-0.352-0.148t-0.148-0.352zM6 24h14v-4h-14v4zM6 14h14v-6h-2.5q-0.625 0-1.062-0.438t-0.438-1.062v-2.5h-10v10zM22 15q0 0.406 0.297 0.703t0.703 0.297 0.703-0.297 0.297-0.703-0.297-0.703-0.703-0.297-0.703 0.297-0.297 0.703z"/> </symbol><symbol viewBox="0 0 24 24" id="icon-remove"><path d="M19 13H5v-2h14v2z"/></symbol><symbol viewBox="0 0 32 32" id="icon-rss"> <path d="M-0.465347858,2.01048219 C-0.465347858,2.01048219 28.7009958,0.574406533 31,31.3201126 L25.1092027,31.3201126 C25.1092027,31.3201126 26.2597741,8.90749482 -0.465347858,6.89506416 L-0.465347858,2.01048219 L-0.465347858,2.01048219 Z M-0.465347858,12.2127144 C-0.465347858,12.2127144 16.6328276,11.6363594 19.9369779,31.3201126 L14.0472499,31.3201126 C14.0472499,31.3201126 13.3297467,19.6839434 -0.465347858,17.0940884 L-0.465347858,12.2127144 L-0.465347858,12.2127144 Z M2.73614917,25.0304648 C4.79776783,25.0304648 6.47229834,26.7007181 6.47229834,28.766614 C6.47229834,30.8282326 4.79776783,32.5016938 2.73614917,32.5016938 C0.6723919,32.5016938 -1,30.8293019 -1,28.766614 C-1,26.7017874 0.6723919,25.0304648 2.73614917,25.0304648 Z" id="rss-Shape"/> </symbol><symbol viewBox="0 0 32 32" id="icon-stumbleupon">  <mask id="stumbleupon-mask-2"> <use href="#path-1"/> </mask> <path d="M31.9250667,16.0373333 C31.9250667,24.8533333 24.7784,32 15.9624,32 C7.14666667,32 0,24.8533333 0,16.0373333 C0,7.2216 7.14666667,0.0749333333 15.9624,0.0749333333 C24.7784,0.0749333333 31.9250667,7.2216 31.9250667,16.0373333 Z M21.9205547,16.3600826 L21.9205547,18.9857015 C21.9205547,19.5214765 21.494073,19.9558236 20.968,19.9558236 C20.441927,19.9558236 20.0154453,19.5214765 20.0154453,18.9857015 L20.0154453,16.4101275 L18.1823358,16.9675798 L16.9525547,16.3839008 L16.9525547,18.9383327 C16.9717372,21.1844666 18.7659562,23 20.976146,23 C23.1984234,23 25,21.1651979 25,18.9019364 L25,16.3600826 L21.9205547,16.3600826 Z M16.9525547,14.2429415 L18.1823358,14.8266205 L20.0154453,14.2691683 L20.0154453,12.9736203 C19.9505401,10.7684323 18.1810219,9 16,9 C13.8268613,9 12.0618102,10.7555866 11.9845547,12.9492669 L11.9845547,18.8684839 C11.9845547,19.404259 11.558073,19.8386061 11.032,19.8386061 C10.505927,19.8386061 10.0794453,19.404259 10.0794453,18.8684839 L10.0794453,16.3600826 L7,16.3600826 L7,18.9019364 C7,21.1651979 8.80131387,23 11.0235912,23 C13.2264234,23 15.0119708,21.1965095 15.0429781,18.9608128 L15.0474453,13.114656 C15.0474453,12.578881 15.473927,12.1445339 16,12.1445339 C16.526073,12.1445339 16.9525547,12.578881 16.9525547,13.114656 L16.9525547,14.2429415 Z" id="stumbleupon-Fill-1" mask="url(#stumbleupon-mask-2)"/> </symbol><symbol viewBox="0 0 32 32" id="icon-tumblr"> <path d="M23.852762,25.5589268 C23.2579209,25.8427189 22.1195458,26.089634 21.2697728,26.1120809 C18.7092304,26.1810247 18.2121934,24.3131275 18.1897466,22.9566974 L18.1897466,12.9951133 L24.6159544,12.9951133 L24.6159544,8.15140729 L18.2137967,8.15140729 L18.2137967,0 L13.5256152,0 C13.4486546,0 13.3139736,0.0673405008 13.2963368,0.238898443 C13.0221648,2.73370367 11.8533261,7.11243957 7,8.86168924 L7,12.9951133 L10.2387574,12.9951133 L10.2387574,23.4521311 C10.2387574,27.0307977 12.8794671,32.1166089 19.8508122,31.9979613 C22.2013164,31.9578777 24.8131658,30.9718204 25.3919735,30.1236507 L23.852762,25.5589268"/> </symbol><symbol viewBox="0 0 43 32" id="icon-twitter"> <path d="M36.575 5.229c1.756-0.952 3.105-2.46 3.74-4.257-1.644 0.882-3.464 1.522-5.402 1.867-1.551-1.495-3.762-2.429-6.209-2.429-4.697 0-8.506 3.445-8.506 7.694 0 0.603 0.075 1.19 0.22 1.753-7.069-0.321-13.337-3.384-17.532-8.039-0.732 1.136-1.152 2.458-1.152 3.868 0 2.669 1.502 5.024 3.784 6.404-1.394-0.040-2.706-0.386-3.853-0.962-0.001 0.032-0.001 0.064-0.001 0.097 0 3.728 2.932 6.837 6.823 7.544-0.714 0.176-1.465 0.27-2.241 0.27-0.548 0-1.081-0.048-1.6-0.138 1.083 3.057 4.224 5.281 7.946 5.343-2.911 2.064-6.579 3.294-10.564 3.294-0.687 0-1.364-0.036-2.029-0.108 3.764 2.183 8.235 3.457 13.039 3.457 15.646 0 24.202-11.724 24.202-21.891 0-0.334-0.008-0.665-0.025-0.995 1.662-1.085 3.104-2.439 4.244-3.982-1.525 0.612-3.165 1.025-4.885 1.211z"/> </symbol><symbol viewBox="0 0 32 32" id="icon-youtube"> <path d="M31.6634051,8.8527593 C31.6634051,8.8527593 31.3509198,6.64879843 30.3919217,5.67824658 C29.1757339,4.40441487 27.8125088,4.39809002 27.1873503,4.32353816 C22.7118278,4 15.9983092,4 15.9983092,4 L15.984407,4 C15.984407,4 9.27104501,4 4.79536595,4.32353816 C4.17017613,4.39809002 2.80745205,4.40441487 1.59082583,5.67824658 C0.631890411,6.64879843 0.319843444,8.8527593 0.319843444,8.8527593 C0.319843444,8.8527593 0,11.4409393 0,14.0290881 L0,16.4554834 C0,19.0436008 0.319843444,21.6317495 0.319843444,21.6317495 C0.319843444,21.6317495 0.631890411,23.8357417 1.59082583,24.8062935 C2.80745205,26.0801566 4.40557339,26.0398591 5.11736986,26.1733699 C7.67602348,26.4187241 15.9913894,26.4946536 15.9913894,26.4946536 C15.9913894,26.4946536 22.7118278,26.4845401 27.1873503,26.1610333 C27.8125088,26.0864501 29.1757339,26.0801566 30.3919217,24.8062935 C31.3509198,23.8357417 31.6634051,21.6317495 31.6634051,21.6317495 C31.6634051,21.6317495 31.9827789,19.0436008 31.9827789,16.4554834 L31.9827789,14.0290881 C31.9827789,11.4409393 31.6634051,8.8527593 31.6634051,8.8527593 Z M12.6895342,19.39582 L12.6880626,10.4095186 L21.3299413,14.9183249 L12.6895342,19.39582 Z" id="youtube-Imported-Layers"/> </symbol>
<symbol id="icon-user"   width="25" height="24" viewBox="0 0 25 24" fill="none" xmlns="http://www.w3.org/2000/svg">
<path fill-rule="evenodd" clip-rule="evenodd" d="M19.6163 20.8889C19.6163 21.5022 19.1374 22 18.5449 22C17.9524 22 17.4735 21.5022 17.4735 20.8889C17.4735 17.8256 15.0703 15.3333 12.1163 15.3333C9.1624 15.3333 6.75919 17.8256 6.75919 20.8889C6.75919 21.5022 6.28026 22 5.68776 22C5.09526 22 4.61633 21.5022 4.61633 20.8889C4.61633 16.6 7.98169 13.1111 12.1163 13.1111C16.251 13.1111 19.6163 16.6 19.6163 20.8889ZM12.1163 4.22222C13.2981 4.22222 14.2592 5.21889 14.2592 6.44444C14.2592 7.67 13.2981 8.66667 12.1163 8.66667C10.9345 8.66667 9.97348 7.67 9.97348 6.44444C9.97348 5.21889 10.9345 4.22222 12.1163 4.22222ZM12.1163 10.8889C14.4799 10.8889 16.402 8.89556 16.402 6.44444C16.402 3.99333 14.4799 2 12.1163 2C9.75276 2 7.83062 3.99333 7.83062 6.44444C7.83062 8.89556 9.75276 10.8889 12.1163 10.8889Z" fill="white"/>
</symbol>
<symbol id="icon-search" width="25" height="24" viewBox="0 0 25 24" fill="none" xmlns="http://www.w3.org/2000/svg">
<path fill-rule="evenodd" clip-rule="evenodd" d="M5.61633 11C5.61633 7.691 8.30733 5 11.6163 5C14.9253 5 17.6163 7.691 17.6163 11C17.6163 14.309 14.9253 17 11.6163 17C8.30733 17 5.61633 14.309 5.61633 11ZM21.3233 19.293L17.9283 15.897C18.9813 14.543 19.6163 12.846 19.6163 11C19.6163 6.589 16.0273 3 11.6163 3C7.20533 3 3.61633 6.589 3.61633 11C3.61633 15.411 7.20533 19 11.6163 19C13.4623 19 15.1593 18.365 16.5133 17.312L19.9093 20.707C20.1043 20.902 20.3603 21 20.6163 21C20.8723 21 21.1283 20.902 21.3233 20.707C21.7143 20.316 21.7143 19.684 21.3233 19.293Z" fill="white"/>
</symbol>
<symbol id="icon-query" width="25" height="24" viewBox="0 0 25 24" fill="none" xmlns="http://www.w3.org/2000/svg">
<path d="M23.1349 9.40364C22.7094 8.95964 22.2698 8.50145 22.0931 8.07491C21.9294 7.67891 21.9207 7.09309 21.9109 6.47345C21.8956 5.45018 21.8782 4.29164 21.1014 3.51491C20.3247 2.73818 19.1618 2.72073 18.1429 2.70545C17.5232 2.69564 16.9429 2.68691 16.5414 2.52327C16.1149 2.34655 15.6567 1.90691 15.2127 1.48145C14.4883 0.787636 13.668 0 12.6163 0C11.5647 0 10.7443 0.787636 10.02 1.48145C9.57597 1.90691 9.11779 2.34655 8.69124 2.52327C8.29524 2.68691 7.70942 2.69564 7.08979 2.70545C6.06651 2.72073 4.90797 2.73818 4.13124 3.51491C3.35452 4.29164 3.33706 5.45455 3.32179 6.47345C3.31197 7.09309 3.30324 7.67345 3.13961 8.07491C2.96288 8.50145 2.52324 8.95964 2.09779 9.40364C1.40397 10.128 0.616333 10.9484 0.616333 12C0.616333 13.0516 1.40397 13.872 2.09779 14.5964C2.52324 15.0404 2.96288 15.4985 3.13961 15.9251C3.30324 16.3211 3.31197 16.9069 3.32179 17.5265C3.33706 18.5498 3.35452 19.7084 4.13124 20.4851C4.90797 21.2618 6.07088 21.2793 7.08979 21.2945C7.70942 21.3044 8.28979 21.3131 8.69124 21.4767C9.11779 21.6535 9.57597 22.0931 10.02 22.5185C10.7443 23.2124 11.5647 24 12.6163 24C13.668 24 14.4883 23.2124 15.2127 22.5185C15.6567 22.0931 16.1149 21.6535 16.5414 21.4767C16.9374 21.3131 17.5232 21.3044 18.1429 21.2945C19.1662 21.2793 20.3247 21.2618 21.1014 20.4851C21.8782 19.7084 21.8956 18.5498 21.9109 17.5265C21.9207 16.9069 21.9294 16.3265 22.0931 15.9251C22.2698 15.4985 22.7094 15.0404 23.1349 14.5964C23.8287 13.872 24.6163 13.0516 24.6163 12C24.6163 10.9484 23.8287 10.128 23.1349 9.40364ZM22.1902 13.6909C21.6807 14.2211 21.1538 14.7709 20.8811 15.4255C20.6214 16.0516 20.6105 16.7913 20.5996 17.5069C20.5876 18.3185 20.5745 19.1585 20.1742 19.56C19.7738 19.9615 18.9327 19.9735 18.1211 19.9855C17.4054 19.9964 16.6658 20.0073 16.0396 20.2669C15.3851 20.5375 14.8396 21.0644 14.304 21.576C13.7312 22.1215 13.1389 22.6931 12.6142 22.6931C12.0894 22.6931 11.4971 22.1247 10.9232 21.576C10.3931 21.0665 9.84324 20.5396 9.1887 20.2669C8.56252 20.0073 7.82288 19.9964 7.10724 19.9855C6.29561 19.9735 5.45561 19.9604 5.05415 19.56C4.6527 19.1596 4.6407 18.3185 4.6287 17.5069C4.61779 16.7913 4.60688 16.0516 4.34724 15.4255C4.0767 14.7709 3.54979 14.2255 3.03815 13.6898C2.49379 13.1171 1.92542 12.5247 1.92542 12C1.92542 11.4753 2.49379 10.8829 3.04252 10.3091C3.55197 9.77891 4.07888 9.22909 4.35161 8.57454C4.61124 7.94836 4.62215 7.20873 4.63306 6.49309C4.64506 5.68145 4.65815 4.84145 5.05852 4.44C5.45888 4.03855 6.29997 4.02655 7.11161 4.01455C7.82724 4.00364 8.56688 3.99273 9.19306 3.73309C9.84761 3.46255 10.3931 2.93564 10.9287 2.424C11.4992 1.87745 12.0916 1.30909 12.6163 1.30909C13.1411 1.30909 13.7334 1.87745 14.3072 2.42618C14.8374 2.93564 15.3872 3.46255 16.0418 3.73527C16.668 3.99491 17.4076 4.00582 18.1232 4.01673C18.9349 4.02873 19.7749 4.04182 20.1763 4.44218C20.5778 4.84255 20.5898 5.68364 20.6018 6.49527C20.6127 7.21091 20.6236 7.95055 20.8832 8.57673C21.1538 9.23127 21.6807 9.77673 22.1923 10.3124C22.7378 10.8851 23.3094 11.4775 23.3094 12.0022C23.3094 12.5269 22.7389 13.1171 22.1902 13.6909ZM13.7072 17.6727C13.7072 17.8885 13.6433 18.0994 13.5234 18.2788C13.4035 18.4582 13.2331 18.598 13.0338 18.6806C12.8345 18.7632 12.6151 18.7848 12.4035 18.7427C12.1919 18.7006 11.9975 18.5967 11.8449 18.4441C11.6924 18.2916 11.5885 18.0972 11.5464 17.8856C11.5043 17.6739 11.5259 17.4546 11.6085 17.2553C11.691 17.0559 11.8309 16.8855 12.0103 16.7657C12.1897 16.6458 12.4006 16.5818 12.6163 16.5818C12.9057 16.5818 13.1831 16.6968 13.3877 16.9013C13.5923 17.1059 13.7072 17.3834 13.7072 17.6727ZM16.7618 9.81818C16.7618 11.664 15.2465 13.2 13.2709 13.4815V13.7455C13.2709 13.9191 13.2019 14.0855 13.0792 14.2083C12.9564 14.331 12.7899 14.4 12.6163 14.4C12.4427 14.4 12.2763 14.331 12.1535 14.2083C12.0307 14.0855 11.9618 13.9191 11.9618 13.7455V12.8727C11.9618 12.6991 12.0307 12.5326 12.1535 12.4099C12.2763 12.2871 12.4427 12.2182 12.6163 12.2182C14.1807 12.2182 15.4527 11.1415 15.4527 9.81818C15.4527 8.49491 14.1807 7.41818 12.6163 7.41818C11.052 7.41818 9.77997 8.49491 9.77997 9.81818V10.2545C9.77997 10.4281 9.71101 10.5946 9.58826 10.7174C9.46551 10.8401 9.29902 10.9091 9.12542 10.9091C8.95183 10.9091 8.78534 10.8401 8.66259 10.7174C8.53984 10.5946 8.47088 10.4281 8.47088 10.2545V9.81818C8.47088 7.77273 10.3254 6.10909 12.6163 6.10909C14.9072 6.10909 16.7618 7.77273 16.7618 9.81818Z" fill="#FFEDCD"/>
</symbol>
<symbol  id="icon-cart"  width="20" height="18" viewBox="0 0 20 18" fill="none" xmlns="http://www.w3.org/2000/svg">
<path fill-rule="evenodd" clip-rule="evenodd" d="M17.6163 16.5C17.6163 17.329 16.9443 18 16.1163 18C15.2883 18 14.6163 17.329 14.6163 16.5C14.6163 15.671 15.2883 15 16.1163 15C16.9443 15 17.6163 15.671 17.6163 16.5V16.5ZM7.61633 16.5C7.61633 17.329 6.94433 18 6.11633 18C5.28833 18 4.61633 17.329 4.61633 16.5C4.61633 15.671 5.28833 15 6.11633 15C6.94433 15 7.61633 15.671 7.61633 16.5V16.5ZM14.9983 11H7.38033L5.74333 5H17.9983L14.9983 11ZM19.6993 3.948C19.3323 3.354 18.6963 3 17.9983 3H5.19833L4.58133 0.737C4.46233 0.302 4.06733 0 3.61633 0H1.61633C1.06333 0 0.616333 0.448 0.616333 1C0.616333 1.552 1.06333 2 1.61633 2H2.85233L5.65133 12.263C5.77033 12.698 6.16533 13 6.61633 13H15.6163C15.9953 13 16.3413 12.786 16.5113 12.447L19.7873 5.894C20.0993 5.269 20.0663 4.542 19.6993 3.948V3.948Z" fill="#546153"/>
</symbol>


<symbol id="usp-icon" width="69" height="68" viewBox="0 0 69 68" fill="none" xmlns="http://www.w3.org/2000/svg">
<g filter="url(#filter0_d_2844_16829)">
<rect x="20.8" y="3" width="28" height="28" rx="14" fill="#F3F2F2"/>
<path d="M34.8 9.40002C30.5939 9.40002 27.2 12.794 27.2 17C27.2 21.2061 30.5939 24.6 34.8 24.6C39.0061 24.6 42.4 21.2061 42.4 17C42.4 12.794 39.0061 9.40002 34.8 9.40002ZM34.8 9.90673C38.7341 9.90673 41.8932 13.0659 41.8932 17C41.8932 20.9341 38.7341 24.0932 34.8 24.0932C30.8659 24.0932 27.7068 20.9341 27.7068 17C27.7068 13.0659 30.8659 9.90673 34.8 9.90673Z" fill="#546153"/>
<path fill-rule="evenodd" clip-rule="evenodd" d="M33.5018 9.65331V15.7016H27.485V16.2083H34.0082V9.65326H33.5015L33.5018 9.65331Z" fill="#546153"/>
<path fill-rule="evenodd" clip-rule="evenodd" d="M35.5918 9.65332V16.2083H42.1468V15.7016H36.0985V9.65337L35.5918 9.65332Z" fill="#546153"/>
<path fill-rule="evenodd" clip-rule="evenodd" d="M27.4533 17.7918V18.2985H33.5015V24.1885H34.0082V17.7917L27.4533 17.7918Z" fill="#546153"/>
<path fill-rule="evenodd" clip-rule="evenodd" d="M35.5918 17.7918V24.3468H36.0985V18.2986H42.0835V17.7919L35.5918 17.7918Z" fill="#546153"/>
<path fill-rule="evenodd" clip-rule="evenodd" d="M30.4498 10.8351L30.092 11.1937L33.7549 14.8445V14.1288L30.4498 10.8351ZM39.1217 10.8312L35.845 14.0971V14.8126L39.4797 11.1901L39.1217 10.8312ZM28.9933 12.3235L28.6351 12.6817L31.9082 15.9549H32.6247L28.9933 12.3235ZM40.5779 12.3197L36.9429 15.9549H37.6595L40.9362 12.6779L40.5779 12.3197ZM31.8873 18.0449L28.6163 21.305L28.974 21.6637L32.6047 18.045L31.8873 18.0449ZM36.9627 18.0449L40.5491 21.6193L40.907 21.2606L37.68 18.0448L36.9627 18.0449ZM33.7547 19.1431L30.0728 22.8251L30.431 23.1833L33.7547 19.8597L33.7547 19.1431ZM35.8447 19.175V19.8917L39.0924 23.1393L39.4506 22.781L35.8447 19.175Z" fill="#546153"/>
</g>
<defs>
<filter id="filter0_d_2844_16829" x="0.800003" y="0" width="68" height="68" filterUnits="userSpaceOnUse" color-interpolation-filters="sRGB">
<feFlood flood-opacity="0" result="BackgroundImageFix"/>
<feColorMatrix in="SourceAlpha" type="matrix" values="0 0 0 0 0 0 0 0 0 0 0 0 0 0 0 0 0 0 127 0" result="hardAlpha"/>
<feOffset dy="17"/>
<feGaussianBlur stdDeviation="10"/>
<feColorMatrix type="matrix" values="0 0 0 0 0 0 0 0 0 0 0 0 0 0 0 0 0 0 0.02 0"/>
<feBlend mode="normal" in2="BackgroundImageFix" result="effect1_dropShadow_2844_16829"/>
<feBlend mode="normal" in="SourceGraphic" in2="effect1_dropShadow_2844_16829" result="shape"/>
</filter>
</defs>
</symbol>
<symbol id="usp-icon2" width="69" height="68" viewBox="0 0 69 68" fill="none" xmlns="http://www.w3.org/2000/svg">
<g filter="url(#filter0_d_2844_13643)">
<rect x="20.2" y="3" width="28" height="28" rx="14" fill="#F3F2F2"/>
<path d="M36.5089 14.7183L27.8272 23.4" stroke="#546153" stroke-width="0.5" stroke-linecap="round" stroke-linejoin="round"/>
<path d="M29.5635 21.6642C26.0908 15.8764 30.721 10.0886 40.5602 10.6674C41.139 20.5066 35.3512 25.1368 29.5635 21.6642Z" stroke="#546153" stroke-width="0.5" stroke-linecap="round" stroke-linejoin="round"/>
</g>
<defs>
<filter id="filter0_d_2844_13643" x="0.199951" y="0" width="68" height="68" filterUnits="userSpaceOnUse" color-interpolation-filters="sRGB">
<feFlood flood-opacity="0" result="BackgroundImageFix"/>
<feColorMatrix in="SourceAlpha" type="matrix" values="0 0 0 0 0 0 0 0 0 0 0 0 0 0 0 0 0 0 127 0" result="hardAlpha"/>
<feOffset dy="17"/>
<feGaussianBlur stdDeviation="10"/>
<feColorMatrix type="matrix" values="0 0 0 0 0 0 0 0 0 0 0 0 0 0 0 0 0 0 0.02 0"/>
<feBlend mode="normal" in2="BackgroundImageFix" result="effect1_dropShadow_2844_13643"/>
<feBlend mode="normal" in="SourceGraphic" in2="effect1_dropShadow_2844_13643" result="shape"/>
</filter>
</defs>
</symbol>
<symbol id="usp-icon3" width="69" height="68" viewBox="0 0 69 68" fill="none" xmlns="http://www.w3.org/2000/svg">
<g filter="url(#filter0_d_2844_12857)">
<rect x="20.2" y="3" width="28" height="28" rx="14" fill="#F3F2F2"/>
<path d="M34.2 21.3998L34.2 23.3998" stroke="#546153" stroke-width="0.5" stroke-linecap="round" stroke-linejoin="round"/>
<path d="M31.0833 18.4166C31.5527 18.4166 31.9333 18.036 31.9333 17.5666C31.9333 17.0971 31.5527 16.7166 31.0833 16.7166C30.6138 16.7166 30.2333 17.0971 30.2333 17.5666C30.2333 18.036 30.6138 18.4166 31.0833 18.4166Z" fill="#546153"/>
<path d="M37.3167 18.4166C37.7861 18.4166 38.1667 18.036 38.1667 17.5666C38.1667 17.0971 37.7861 16.7166 37.3167 16.7166C36.8472 16.7166 36.4667 17.0971 36.4667 17.5666C36.4667 18.036 36.8472 18.4166 37.3167 18.4166Z" fill="#546153"/>
<path d="M34.2 11.0499V13.8832" stroke="#546153" stroke-width="0.5" stroke-linecap="round" stroke-linejoin="round"/>
<path d="M35.4 20.1999H33" stroke="#546153" stroke-width="0.5" stroke-linecap="round" stroke-linejoin="round"/>
<path d="M35.3999 20.1999L34.1999 21.3999L32.9999 20.1999" stroke="#546153" stroke-width="0.5" stroke-linecap="round" stroke-linejoin="round"/>
<path d="M31.9333 11.4052V13.8837" stroke="#546153" stroke-width="0.5" stroke-linecap="round" stroke-linejoin="round"/>
<path d="M36.4667 11.4052V13.8837" stroke="#546153" stroke-width="0.5" stroke-linecap="round" stroke-linejoin="round"/>
<path d="M27.4 17.2831V11.2845C27.4 11.1724 27.4332 11.0629 27.4955 10.9697C27.5577 10.8765 27.6462 10.8039 27.7498 10.761C27.8533 10.7181 27.9673 10.7069 28.0772 10.7287C28.1871 10.7506 28.2881 10.8046 28.3673 10.8838L29.9215 12.438L29.9215 12.438C31.1656 11.5357 32.6631 11.0498 34.2 11.0498C35.7368 11.0498 37.2343 11.5357 38.4784 12.438L38.4784 12.438L40.0326 10.8838C40.1119 10.8046 40.2128 10.7506 40.3227 10.7287C40.4327 10.7069 40.5466 10.7181 40.6502 10.761C40.7537 10.8039 40.8422 10.8765 40.9045 10.9697C40.9667 11.0629 41 11.1724 41 11.2845V17.2831C41 20.7257 37.9555 23.5164 34.2 23.5164C30.4444 23.5164 27.4 20.7257 27.4 17.2831Z" stroke="#546153" stroke-width="0.5" stroke-linecap="round" stroke-linejoin="round"/>
</g>
<defs>
<filter id="filter0_d_2844_12857" x="0.199951" y="0" width="68" height="68" filterUnits="userSpaceOnUse" color-interpolation-filters="sRGB">
<feFlood flood-opacity="0" result="BackgroundImageFix"/>
<feColorMatrix in="SourceAlpha" type="matrix" values="0 0 0 0 0 0 0 0 0 0 0 0 0 0 0 0 0 0 127 0" result="hardAlpha"/>
<feOffset dy="17"/>
<feGaussianBlur stdDeviation="10"/>
<feColorMatrix type="matrix" values="0 0 0 0 0 0 0 0 0 0 0 0 0 0 0 0 0 0 0.02 0"/>
<feBlend mode="normal" in2="BackgroundImageFix" result="effect1_dropShadow_2844_12857"/>
<feBlend mode="normal" in="SourceGraphic" in2="effect1_dropShadow_2844_12857" result="shape"/>
</filter>
</defs>
</symbol>
<symbol id="usp-icon4" width="70" height="68" viewBox="0 0 70 68" fill="none" xmlns="http://www.w3.org/2000/svg">
<g filter="url(#filter0_d_2844_9395)">
<rect x="20.8" y="3" width="28.4" height="28" rx="14" fill="#F3F2F2"/>
<path d="M41.4 20.3903V13.6086C41.4 13.5111 41.374 13.4152 41.3248 13.331C41.2755 13.2467 41.2047 13.1771 41.1197 13.1293L35.0697 9.72615C34.9873 9.67984 34.8945 9.65552 34.8 9.65552C34.7056 9.65552 34.6127 9.67984 34.5304 9.72615L28.4804 13.1293C28.3953 13.1771 28.3245 13.2467 28.2752 13.331C28.226 13.4152 28.2 13.5111 28.2 13.6086V20.3903C28.2 20.4879 28.226 20.5837 28.2752 20.668C28.3245 20.7522 28.3953 20.8218 28.4804 20.8697L34.5304 24.2728C34.6127 24.3191 34.7056 24.3434 34.8 24.3434C34.8945 24.3434 34.9873 24.3191 35.0697 24.2728L41.1197 20.8697C41.2047 20.8218 41.2755 20.7522 41.3248 20.668C41.374 20.5837 41.4 20.4879 41.4 20.3903Z" stroke="#546153" stroke-width="0.5" stroke-linecap="round" stroke-linejoin="round"/>
<path d="M38.1703 18.6852V15.1102L31.5 11.4313" stroke="#546153" stroke-width="0.5" stroke-linecap="round" stroke-linejoin="round"/>
<path d="M41.248 13.3298L34.7891 16.9992L28.2 13.3291" stroke="#546153" stroke-width="0.5" stroke-linecap="round" stroke-linejoin="round"/>
<path d="M34.8645 17L34.8 24.344" stroke="#546153" stroke-width="0.5" stroke-linecap="round" stroke-linejoin="round"/>
</g>
<defs>
<filter id="filter0_d_2844_9395" x="0.799988" y="0" width="68.4" height="68" filterUnits="userSpaceOnUse" color-interpolation-filters="sRGB">
<feFlood flood-opacity="0" result="BackgroundImageFix"/>
<feColorMatrix in="SourceAlpha" type="matrix" values="0 0 0 0 0 0 0 0 0 0 0 0 0 0 0 0 0 0 127 0" result="hardAlpha"/>
<feOffset dy="17"/>
<feGaussianBlur stdDeviation="10"/>
<feColorMatrix type="matrix" values="0 0 0 0 0 0 0 0 0 0 0 0 0 0 0 0 0 0 0.02 0"/>
<feBlend mode="normal" in2="BackgroundImageFix" result="effect1_dropShadow_2844_9395"/>
<feBlend mode="normal" in="SourceGraphic" in2="effect1_dropShadow_2844_9395" result="shape"/>
</filter>
</defs>
</symbol>
<symbol  id="icon-logo-mastercard" width="59" height="41" viewBox="0 0 59 41" fill="none" xmlns="http://www.w3.org/2000/svg">
<rect x="0.706787" y="1.28613" width="56.931" height="39" rx="3.5" fill="white" stroke="#F3F3F3"/>
<path fill-rule="evenodd" clip-rule="evenodd" d="M21.4305 31.6766V33.1535V34.6303H20.7839V34.2717C20.5789 34.5377 20.2677 34.7046 19.8448 34.7046C19.011 34.7046 18.3573 34.056 18.3573 33.1535C18.3573 32.2516 19.011 31.6023 19.8448 31.6023C20.2677 31.6023 20.5789 31.7692 20.7839 32.0352V31.6766H21.4305ZM19.9252 32.2078C19.3656 32.2078 19.0231 32.6343 19.0231 33.1535C19.0231 33.6726 19.3656 34.0991 19.9252 34.0991C20.46 34.0991 20.821 33.691 20.821 33.1535C20.821 32.6159 20.46 32.2078 19.9252 32.2078ZM43.2783 33.1535C43.2783 32.6343 43.6208 32.2078 44.1805 32.2078C44.7159 32.2078 45.0762 32.6159 45.0762 33.1535C45.0762 33.691 44.7159 34.0991 44.1805 34.0991C43.6208 34.0991 43.2783 33.6726 43.2783 33.1535ZM45.6864 30.4904V33.1535V34.6303H45.0392V34.2717C44.8341 34.5377 44.5229 34.7046 44.1 34.7046C43.2662 34.7046 42.6126 34.056 42.6126 33.1535C42.6126 32.2516 43.2662 31.6023 44.1 31.6023C44.5229 31.6023 44.8341 31.7692 45.0392 32.0352V30.4904H45.6864ZM29.4557 32.1774C29.8723 32.1774 30.14 32.4369 30.2083 32.8939H28.6654C28.7344 32.4674 28.995 32.1774 29.4557 32.1774ZM27.9875 33.1535C27.9875 32.2325 28.597 31.6023 29.4685 31.6023C30.3016 31.6023 30.8741 32.2325 30.8805 33.1535C30.8805 33.2397 30.8741 33.3204 30.8677 33.4003H28.6597C28.753 33.9322 29.1325 34.1239 29.549 34.1239C29.8473 34.1239 30.1649 34.0121 30.4141 33.8148L30.731 34.2908C30.37 34.5935 29.9598 34.7046 29.512 34.7046C28.6219 34.7046 27.9875 34.0928 27.9875 33.1535ZM37.2752 33.1535C37.2752 32.6343 37.6177 32.2078 38.1774 32.2078C38.7121 32.2078 39.0731 32.6159 39.0731 33.1535C39.0731 33.691 38.7121 34.0991 38.1774 34.0991C37.6177 34.0991 37.2752 33.6726 37.2752 33.1535ZM39.6826 31.6766V33.1535V34.6303H39.0361V34.2717C38.8303 34.5377 38.5198 34.7046 38.0969 34.7046C37.2631 34.7046 36.6095 34.056 36.6095 33.1535C36.6095 32.2516 37.2631 31.6023 38.0969 31.6023C38.5198 31.6023 38.8303 31.7692 39.0361 32.0352V31.6766H39.6826ZM33.6239 33.1535C33.6239 34.0496 34.2519 34.7046 35.2103 34.7046C35.6582 34.7046 35.9565 34.6056 36.2798 34.3523L35.9694 33.8332C35.7266 34.0065 35.4717 34.0991 35.1911 34.0991C34.6749 34.0928 34.2954 33.7221 34.2954 33.1535C34.2954 32.5848 34.6749 32.2141 35.1911 32.2078C35.4717 32.2078 35.7266 32.3004 35.9694 32.4737L36.2798 31.9546C35.9565 31.7013 35.6582 31.6023 35.2103 31.6023C34.2519 31.6023 33.6239 32.2573 33.6239 33.1535ZM41.1757 32.0352C41.3437 31.7756 41.5865 31.6023 41.9596 31.6023C42.0907 31.6023 42.2772 31.6271 42.4203 31.683L42.221 32.2884C42.0843 32.2325 41.9475 32.2141 41.8165 32.2141C41.3936 32.2141 41.1821 32.4858 41.1821 32.9745V34.6303H40.5349V31.6766H41.1757V32.0352ZM24.6282 31.9114C24.317 31.7077 23.8884 31.6023 23.4156 31.6023C22.6623 31.6023 22.1774 31.9609 22.1774 32.548C22.1774 33.0297 22.5384 33.3267 23.2034 33.4194L23.5089 33.4625C23.8635 33.5121 24.0308 33.6047 24.0308 33.7716C24.0308 34.0001 23.7944 34.1303 23.3529 34.1303C22.9051 34.1303 22.5818 33.9881 22.3639 33.8212L22.0592 34.3212C22.4138 34.5808 22.8616 34.7046 23.3465 34.7046C24.2052 34.7046 24.7029 34.3028 24.7029 33.7405C24.7029 33.2214 24.3113 32.9497 23.6641 32.8571L23.3593 32.8132C23.0795 32.7765 22.8552 32.7213 22.8552 32.5232C22.8552 32.3068 23.0667 32.1774 23.4213 32.1774C23.8008 32.1774 24.1682 32.3195 24.3483 32.4306L24.6282 31.9114ZM32.1871 32.0352C32.3544 31.7756 32.5972 31.6023 32.9703 31.6023C33.1013 31.6023 33.2879 31.6271 33.431 31.683L33.2316 32.2884C33.0949 32.2325 32.9582 32.2141 32.8272 32.2141C32.4042 32.2141 32.1928 32.4858 32.1928 32.9745V34.6303H31.5462V31.6766H32.1871V32.0352ZM27.4528 31.6766H26.3954V30.7804H25.7418V31.6766H25.1387V32.2637H25.7418V33.6111C25.7418 34.2965 26.0095 34.7046 26.7742 34.7046C27.0548 34.7046 27.378 34.6183 27.5831 34.4761L27.3965 33.9258C27.2036 34.0369 26.9921 34.0928 26.8241 34.0928C26.5008 34.0928 26.3954 33.8947 26.3954 33.5984V32.2637H27.4528V31.6766ZM17.7856 32.7765V34.6303H17.1319V32.9865C17.1319 32.4858 16.9205 32.2078 16.479 32.2078C16.0497 32.2078 15.7513 32.4801 15.7513 32.9929V34.6303H15.0977V32.9865C15.0977 32.4858 14.8805 32.2078 14.4512 32.2078C14.009 32.2078 13.7228 32.4801 13.7228 32.9929V34.6303H13.0698V31.6766H13.7171V32.0409C13.9599 31.695 14.2703 31.6023 14.5879 31.6023C15.0421 31.6023 15.3654 31.8004 15.5705 32.1279C15.8446 31.7134 16.2362 31.596 16.6157 31.6023C17.3377 31.6087 17.7856 32.0783 17.7856 32.7765Z" fill="#232524"/>
<path d="M34.2129 26.6578H24.4139V9.16455H34.2129V26.6578Z" fill="#FF5F00"/>
<path d="M25.0355 17.9113C25.0355 14.3627 26.7081 11.2017 29.3127 9.16468C27.408 7.67508 25.0042 6.78599 22.3918 6.78599C16.2071 6.78599 11.1937 11.7669 11.1937 17.9113C11.1937 24.0557 16.2071 29.0366 22.3918 29.0366C25.0042 29.0366 27.408 28.1475 29.3127 26.6579C26.7081 24.6209 25.0355 21.4599 25.0355 17.9113" fill="#EB001B"/>
<path d="M47.4323 17.9113C47.4323 24.0557 42.4189 29.0366 36.2342 29.0366C33.6218 29.0366 31.218 28.1475 29.3126 26.6579C31.9179 24.6209 33.5905 21.4599 33.5905 17.9113C33.5905 14.3627 31.9179 11.2017 29.3126 9.16468C31.218 7.67508 33.6218 6.78599 36.2342 6.78599C42.4189 6.78599 47.4323 11.7669 47.4323 17.9113" fill="#F79E1B"/>
</symbol>
 <symbol id="icon-logo-mastero" width="59" height="41" viewBox="0 0 59 41" fill="none" xmlns="http://www.w3.org/2000/svg">
<rect x="0.637817" y="1.28613" width="56.931" height="39" rx="3.5" fill="white" stroke="#F3F3F3"/>
<path d="M34.3906 26.871H24.4865V9.18994H34.3906V26.871Z" fill="#6C6BBD"/>
<path d="M25.1151 18.0307C25.1151 14.444 26.8057 11.2491 29.4382 9.19016C27.5131 7.68457 25.0835 6.78594 22.443 6.78594C16.192 6.78594 11.1248 11.8203 11.1248 18.0307C11.1248 24.241 16.192 29.2754 22.443 29.2754C25.0835 29.2754 27.5131 28.3768 29.4382 26.8712C26.8057 24.8122 25.1151 21.6173 25.1151 18.0307" fill="#EB001B"/>
<path d="M47.7523 18.0307C47.7523 24.241 42.6851 29.2754 36.434 29.2754C33.7936 29.2754 31.3639 28.3768 29.4381 26.8712C32.0714 24.8122 33.7619 21.6173 33.7619 18.0307C33.7619 14.444 32.0714 11.2491 29.4381 9.19016C31.3639 7.68457 33.7936 6.78594 36.434 6.78594C42.6851 6.78594 47.7523 11.8203 47.7523 18.0307" fill="#0099DF"/>
<path d="M37.7416 31.8672C37.8733 31.8672 38.0625 31.8923 38.2072 31.9487L38.0057 32.5607C37.8675 32.5042 37.7293 32.4856 37.5969 32.4856C37.1694 32.4856 36.9557 32.7601 36.9557 33.2534L36.9557 34.9277H36.3015V31.9423H36.9492V32.3048C37.1191 32.0424 37.3645 31.8672 37.7416 31.8672V31.8672Z" fill="#232524"/>
<path d="M35.325 32.5353H34.2563V33.8843C34.2563 34.1839 34.3628 34.384 34.6903 34.384C34.8601 34.384 35.0738 34.3276 35.2682 34.2153L35.4567 34.7708C35.2494 34.9145 34.9227 35.0024 34.6399 35.0024C33.8662 35.0024 33.5964 34.5899 33.5964 33.8965V32.5353H32.9861V31.9419H33.5964V31.0362H34.2563V31.9419H35.325V32.5353Z" fill="#232524"/>
<path fill-rule="evenodd" clip-rule="evenodd" d="M27.7669 31.8672C28.6097 31.8672 29.1883 32.5042 29.1948 33.435C29.1948 33.5215 29.1884 33.6017 29.182 33.6825L29.1818 33.6845H26.9501C27.0444 34.2214 27.428 34.4151 27.849 34.4151C28.1505 34.4151 28.4715 34.3029 28.7227 34.1027L29.0436 34.5838C28.6788 34.8898 28.2642 35.002 27.8116 35.002C26.912 35.002 26.2708 34.3837 26.2708 33.435C26.2708 32.5042 26.8868 31.8672 27.7669 31.8672ZM27.7547 32.4477C27.2891 32.4477 27.0257 32.7415 26.9559 33.1726H28.5154C28.4463 32.7101 28.1757 32.4477 27.7547 32.4477Z" fill="#232524"/>
<path d="M32.0678 32.704C31.8857 32.5911 31.5151 32.4474 31.1315 32.4474C30.7731 32.4474 30.5593 32.5789 30.5593 32.7977C30.5593 32.9971 30.7853 33.0536 31.0681 33.0908L31.3762 33.1344C32.0303 33.2288 32.4262 33.5033 32.4262 34.028C32.4262 34.5964 31.9231 35.0024 31.0559 35.0024C30.5651 35.0024 30.1124 34.8773 29.754 34.615L30.062 34.1088C30.2823 34.2775 30.6097 34.4212 31.0624 34.4212C31.5086 34.4212 31.7475 34.2904 31.7475 34.0588C31.7475 33.8908 31.5777 33.7964 31.2193 33.7471L30.9113 33.7035C30.2384 33.6091 29.8735 33.3095 29.8735 32.8227C29.8735 32.2293 30.3643 31.8669 31.125 31.8669C31.6029 31.8669 32.0368 31.9734 32.3506 32.1793L32.0678 32.704V32.704Z" fill="#232524"/>
<path fill-rule="evenodd" clip-rule="evenodd" d="M40.7793 31.988C40.5807 31.9072 40.3648 31.8672 40.1316 31.8672C39.8985 31.8672 39.6826 31.9072 39.4839 31.988C39.2853 32.0681 39.1148 32.1789 38.9708 32.3197C38.8269 32.4606 38.7139 32.6271 38.6319 32.8187C38.5498 33.011 38.5088 33.2198 38.5088 33.445C38.5088 33.6702 38.5498 33.8789 38.6319 34.0712C38.7139 34.2628 38.8269 34.4301 38.9708 34.571C39.1148 34.7118 39.2853 34.8219 39.4839 34.9027C39.6826 34.9827 39.8985 35.0228 40.1316 35.0228C40.3648 35.0228 40.5807 34.9827 40.7793 34.9027C40.978 34.8219 41.15 34.7118 41.2946 34.571C41.44 34.4301 41.553 34.2628 41.635 34.0712C41.7171 33.8789 41.7581 33.6702 41.7581 33.445C41.7581 33.2198 41.7171 33.011 41.635 32.8187C41.553 32.6271 41.44 32.4606 41.2946 32.3197C41.15 32.1789 40.978 32.0681 40.7793 31.988ZM39.7567 32.5542C39.8726 32.5077 39.9971 32.4841 40.1316 32.4841C40.2662 32.4841 40.3914 32.5077 40.5066 32.5542C40.6225 32.6014 40.7232 32.6672 40.8074 32.7515C40.8931 32.8359 40.9593 32.9374 41.0082 33.0554C41.0564 33.1733 41.0802 33.3034 41.0802 33.445C41.0802 33.5872 41.0564 33.7166 41.0082 33.8346C40.9593 33.9526 40.8931 34.0541 40.8074 34.1384C40.7232 34.2228 40.6225 34.2886 40.5066 34.3358C40.3914 34.3829 40.2662 34.4058 40.1316 34.4058C39.9971 34.4058 39.8726 34.3829 39.7567 34.3358C39.6415 34.2886 39.5415 34.2228 39.4573 34.1384C39.3731 34.0541 39.3069 33.9526 39.2587 33.8346C39.2105 33.7166 39.1867 33.5872 39.1867 33.445C39.1867 33.3034 39.2105 33.1733 39.2587 33.0554C39.3069 32.9374 39.3731 32.8359 39.4573 32.7515C39.5415 32.6672 39.6415 32.6014 39.7567 32.5542Z" fill="#232524"/>
<path fill-rule="evenodd" clip-rule="evenodd" d="M25.5691 31.9423V33.435V34.9277H24.9157V34.5652C24.7077 34.834 24.3939 35.0028 23.9664 35.0028C23.1237 35.0028 22.4637 34.3465 22.4637 33.435C22.4637 32.5228 23.1237 31.8672 23.9664 31.8672C24.3939 31.8672 24.7077 32.0359 24.9157 32.3047V31.9423H25.5691ZM24.0477 32.4791C23.4821 32.4791 23.1359 32.9102 23.1359 33.435C23.1359 33.9597 23.4821 34.3901 24.0477 34.3901C24.5882 34.3901 24.9531 33.9783 24.9531 33.435C24.9531 32.8916 24.5882 32.4791 24.0477 32.4791Z" fill="#232524"/>
<path d="M21.8852 34.9277V33.054C21.8852 32.3484 21.4325 31.8737 20.7035 31.8672C20.3199 31.8608 19.9233 31.9795 19.647 32.3984C19.4397 32.0674 19.1123 31.8672 18.6531 31.8672C18.3329 31.8672 18.0184 31.9609 17.773 32.3105V31.9423H17.1195V34.9277H17.7794V33.2727C17.7794 32.7544 18.0688 32.4792 18.5149 32.4792C18.9489 32.4792 19.1691 32.7601 19.1691 33.2663V34.9277H19.8291V33.2727C19.8291 32.7544 20.1313 32.4792 20.5646 32.4792C21.0115 32.4792 21.2252 32.7601 21.2252 33.2663V34.9277H21.8852V34.9277Z" fill="#232524"/>
</symbol>
<symbol id="icon-logo-visa" width="58" height="41" viewBox="0 0 58 41" fill="none" xmlns="http://www.w3.org/2000/svg">
<rect x="0.568848" y="1.28613" width="56.931" height="39" rx="3.5" fill="white" stroke="#F3F3F3"/>
<path d="M25.7899 28.2195H21.933L24.3454 14.2188H28.202L25.7899 28.2195Z" fill="#15195A"/>
<path d="M39.7714 14.5609C39.0107 14.2776 37.804 13.9648 36.3121 13.9648C32.5033 13.9648 29.8211 15.8712 29.8047 18.5968C29.7731 20.6077 31.725 21.7246 33.1849 22.3951C34.6771 23.0802 35.1843 23.5274 35.1843 24.1381C35.1692 25.0761 33.9786 25.5084 32.8681 25.5084C31.3283 25.5084 30.5032 25.2855 29.2494 24.7637L28.7415 24.54L28.2018 27.6829C29.1064 28.0697 30.773 28.4129 32.5033 28.428C36.5502 28.428 39.1849 26.5511 39.2161 23.6466C39.2315 22.0528 38.2008 20.8316 35.9786 19.8336C34.6297 19.193 33.8035 18.7611 33.8035 18.1056C33.8193 17.5098 34.5023 16.8994 36.025 16.8994C37.2789 16.8695 38.2001 17.1524 38.898 17.4355L39.2469 17.5842L39.7714 14.5609V14.5609V14.5609Z" fill="#15195A"/>
<path fill-rule="evenodd" clip-rule="evenodd" d="M46.6752 14.2188H49.6585L52.7701 28.2193H49.1989C49.1989 28.2193 48.8495 26.6106 48.7387 26.1191H43.7868C43.6436 26.4912 42.9773 28.2193 42.9773 28.2193H38.9304L44.6593 15.3804C45.0563 14.4717 45.7552 14.2188 46.6752 14.2188ZM46.4375 19.3422C46.4375 19.3422 45.2153 22.4552 44.8977 23.2595H48.1035C47.9449 22.5595 47.2145 19.2082 47.2145 19.2082L46.945 18.0018C46.8315 18.3125 46.6673 18.7395 46.5566 19.0276C46.4815 19.2229 46.431 19.3543 46.4375 19.3422Z" fill="#15195A"/>
<path fill-rule="evenodd" clip-rule="evenodd" d="M5.22156 14.2188H11.4269C12.268 14.2482 12.9505 14.5014 13.1726 15.3956L14.5212 21.8284C14.5213 21.8288 14.5215 21.8292 14.5216 21.8296L14.9343 23.7659L18.7115 14.2188H22.7899L16.7275 28.2046H12.6489L9.21129 16.0392C8.0252 15.3884 6.67155 14.8649 5.15808 14.5016L5.22156 14.2188Z" fill="#15195A"/>
</symbol>
<symbol id="icon-star" width="14" height="14" viewBox="0 0 14 14" fill="none" xmlns="http://www.w3.org/2000/svg">
<path fill-rule="evenodd" clip-rule="evenodd" d="M10.8623 13.2188C10.7519 13.2188 10.6415 13.1931 10.5408 13.1403L6.99979 11.2903L3.45882 13.1403C3.2241 13.2625 2.94077 13.241 2.72896 13.0855C2.51507 12.9299 2.40882 12.6667 2.45327 12.4063L3.12827 8.49796L0.267155 5.7306C0.0761827 5.54658 0.00812713 5.27019 0.0893771 5.0181C0.169933 4.76602 0.387988 4.58269 0.649794 4.54449L4.60882 3.96949L6.37757 0.40977C6.61229 -0.0624526 7.38729 -0.0624526 7.62202 0.40977L9.39077 3.96949L13.3498 4.54449C13.6116 4.58269 13.8297 4.76602 13.9102 5.0181C13.9915 5.27019 13.9234 5.54658 13.7324 5.7306L10.8713 8.49796L11.5463 12.4063C11.5908 12.6667 11.4845 12.9299 11.2706 13.0855C11.1505 13.1744 11.0067 13.2188 10.8623 13.2188Z" fill="#DBDADA"/>
</symbol>

</svg>
