<?xml version="1.0" encoding="UTF-8" standalone="no"?>
<svg
   version="1.1"
   x="0px"
   y="0px"
   width="15.967"
   height="16"
   viewBox="0 0 15.967 16"
   enable-background="new 0 0 16 16"
   xml:space="preserve"
   id="svg4"
   sodipodi:docname="e06b3977ca6012efcc2f543fe93ee24a.svg"
   xmlns:inkscape="http://www.inkscape.org/namespaces/inkscape"
   xmlns:sodipodi="http://sodipodi.sourceforge.net/DTD/sodipodi-0.dtd"
   xmlns="http://www.w3.org/2000/svg"
   xmlns:svg="http://www.w3.org/2000/svg"><defs
   id="defs8" /><sodipodi:namedview
   id="namedview6"
   pagecolor="#ffffff"
   bordercolor="#666666"
   borderopacity="1.0"
   inkscape:pageshadow="2"
   inkscape:pageopacity="0.0"
   inkscape:pagecheckerboard="0" />
<path
   fill="#222222"
   d="M 15.967,14.803 11.714,10.518 C 12.562,9.415 13.078,8.041 13.093,6.547 13.093,2.937 10.156,0 6.546,0 2.936,0 0,2.937 0,6.546 c 0,3.609 2.937,6.546 6.546,6.546 1.477,0 2.84,-0.507 3.94,-1.349 L 14.772,16 Z M 1.64,6.579 c 0,-2.706 2.201,-4.907 4.907,-4.907 2.675,0 4.876,2.203 4.906,4.907 0,2.706 -2.2,4.905 -4.906,4.905 -2.706,0 -4.907,-2.2 -4.907,-4.905 z"
   id="path2" />
</svg>
