<svg width="22" height="22" viewBox="0 0 22 22" fill="none" xmlns="http://www.w3.org/2000/svg">
<path fill-rule="evenodd" clip-rule="evenodd" d="M20.333 9.66658H12.333V1.66659C12.333 0.929252 11.7357 0.333252 10.9997 0.333252C10.2637 0.333252 9.66634 0.929252 9.66634 1.66659V9.66658H1.66634C0.930341 9.66658 0.333008 10.2626 0.333008 10.9999C0.333008 11.7373 0.930341 12.3333 1.66634 12.3333H9.66634V20.3333C9.66634 21.0706 10.2637 21.6666 10.9997 21.6666C11.7357 21.6666 12.333 21.0706 12.333 20.3333V12.3333H20.333C21.069 12.3333 21.6663 11.7373 21.6663 10.9999C21.6663 10.2626 21.069 9.66658 20.333 9.66658Z" fill="#FFEDCD"/>
</svg>
