<?xml version="1.0" encoding="UTF-8" standalone="no"?>
<svg
   version="1.1"
   x="0px"
   y="0px"
   width="16"
   height="16"
   viewBox="0 0 16 16"
   enable-background="new 0 0 16 16"
   xml:space="preserve"
   id="svg12"
   sodipodi:docname="b0425be7e6eddbbe9ce26e9e0958a905.svg"
   xmlns:inkscape="http://www.inkscape.org/namespaces/inkscape"
   xmlns:sodipodi="http://sodipodi.sourceforge.net/DTD/sodipodi-0.dtd"
   xmlns="http://www.w3.org/2000/svg"
   xmlns:svg="http://www.w3.org/2000/svg"><defs
   id="defs16" /><sodipodi:namedview
   id="namedview14"
   pagecolor="#ffffff"
   bordercolor="#666666"
   borderopacity="1.0"
   inkscape:pageshadow="2"
   inkscape:pageopacity="0.0"
   inkscape:pagecheckerboard="0" />
<polygon
   fill="#222222"
   points="8,0 11,3 5,3 "
   id="polygon2" />
<polygon
   fill="#222222"
   points="8,16 5,13 11,13.005 "
   id="polygon4" />
<polygon
   fill="#222222"
   points="3,5 3,11 0,8 "
   id="polygon6" />
<polygon
   fill="#222222"
   points="13,11 13,5 16,8 "
   id="polygon8" />
<path
   fill="#222222"
   d="M 8,5 C 6.343,5 5,6.343 5,8 5,9.657 6.343,11 8,11 9.657,11 11,9.657 11,8 11,6.343 9.657,5 8,5 Z m 0,5 C 6.896,10 6,9.104 6,8 6,6.896 6.896,6 8,6 c 1.104,0 2,0.896 2,2 0,1.104 -0.896,2 -2,2 z"
   id="path10" />
</svg>
