<svg width="25" height="24" viewBox="0 0 25 24" fill="none" xmlns="http://www.w3.org/2000/svg">
<path fill-rule="evenodd" clip-rule="evenodd" d="M19.6163 20.8889C19.6163 21.5022 19.1374 22 18.5449 22C17.9524 22 17.4735 21.5022 17.4735 20.8889C17.4735 17.8256 15.0703 15.3333 12.1163 15.3333C9.1624 15.3333 6.75919 17.8256 6.75919 20.8889C6.75919 21.5022 6.28026 22 5.68776 22C5.09526 22 4.61633 21.5022 4.61633 20.8889C4.61633 16.6 7.98169 13.1111 12.1163 13.1111C16.251 13.1111 19.6163 16.6 19.6163 20.8889ZM12.1163 4.22222C13.2981 4.22222 14.2592 5.21889 14.2592 6.44444C14.2592 7.67 13.2981 8.66667 12.1163 8.66667C10.9345 8.66667 9.97348 7.67 9.97348 6.44444C9.97348 5.21889 10.9345 4.22222 12.1163 4.22222ZM12.1163 10.8889C14.4799 10.8889 16.402 8.89556 16.402 6.44444C16.402 3.99333 14.4799 2 12.1163 2C9.75276 2 7.83062 3.99333 7.83062 6.44444C7.83062 8.89556 9.75276 10.8889 12.1163 10.8889Z" fill="white"/>
</svg>
