<svg width="20" height="18" viewBox="0 0 20 18" fill="none" xmlns="http://www.w3.org/2000/svg">
<path fill-rule="evenodd" clip-rule="evenodd" d="M17.6163 16.5C17.6163 17.329 16.9443 18 16.1163 18C15.2883 18 14.6163 17.329 14.6163 16.5C14.6163 15.671 15.2883 15 16.1163 15C16.9443 15 17.6163 15.671 17.6163 16.5ZM7.61633 16.5C7.61633 17.329 6.94433 18 6.11633 18C5.28833 18 4.61633 17.329 4.61633 16.5C4.61633 15.671 5.28833 15 6.11633 15C6.94433 15 7.61633 15.671 7.61633 16.5ZM14.9983 11H7.38033L5.74333 5H17.9983L14.9983 11ZM19.6993 3.948C19.3323 3.354 18.6963 3 17.9983 3H5.19833L4.58133 0.737C4.46233 0.302 4.06733 0 3.61633 0H1.61633C1.06333 0 0.616333 0.448 0.616333 1C0.616333 1.552 1.06333 2 1.61633 2H2.85233L5.65133 12.263C5.77033 12.698 6.16533 13 6.61633 13H15.6163C15.9953 13 16.3413 12.786 16.5113 12.447L19.7873 5.894C20.0993 5.269 20.0663 4.542 19.6993 3.948Z" fill="#546153"/>
</svg>
