<svg width="25" height="24" viewBox="0 0 25 24" fill="none" xmlns="http://www.w3.org/2000/svg">
<path d="M23.1349 9.40364C22.7094 8.95964 22.2698 8.50145 22.0931 8.07491C21.9294 7.67891 21.9207 7.09309 21.9109 6.47345C21.8956 5.45018 21.8782 4.29164 21.1014 3.51491C20.3247 2.73818 19.1618 2.72073 18.1429 2.70545C17.5232 2.69564 16.9429 2.68691 16.5414 2.52327C16.1149 2.34655 15.6567 1.90691 15.2127 1.48145C14.4883 0.787636 13.668 0 12.6163 0C11.5647 0 10.7443 0.787636 10.02 1.48145C9.57597 1.90691 9.11779 2.34655 8.69124 2.52327C8.29524 2.68691 7.70942 2.69564 7.08979 2.70545C6.06651 2.72073 4.90797 2.73818 4.13124 3.51491C3.35452 4.29164 3.33706 5.45455 3.32179 6.47345C3.31197 7.09309 3.30324 7.67345 3.13961 8.07491C2.96288 8.50145 2.52324 8.95964 2.09779 9.40364C1.40397 10.128 0.616333 10.9484 0.616333 12C0.616333 13.0516 1.40397 13.872 2.09779 14.5964C2.52324 15.0404 2.96288 15.4985 3.13961 15.9251C3.30324 16.3211 3.31197 16.9069 3.32179 17.5265C3.33706 18.5498 3.35452 19.7084 4.13124 20.4851C4.90797 21.2618 6.07088 21.2793 7.08979 21.2945C7.70942 21.3044 8.28979 21.3131 8.69124 21.4767C9.11779 21.6535 9.57597 22.0931 10.02 22.5185C10.7443 23.2124 11.5647 24 12.6163 24C13.668 24 14.4883 23.2124 15.2127 22.5185C15.6567 22.0931 16.1149 21.6535 16.5414 21.4767C16.9374 21.3131 17.5232 21.3044 18.1429 21.2945C19.1662 21.2793 20.3247 21.2618 21.1014 20.4851C21.8782 19.7084 21.8956 18.5498 21.9109 17.5265C21.9207 16.9069 21.9294 16.3265 22.0931 15.9251C22.2698 15.4985 22.7094 15.0404 23.1349 14.5964C23.8287 13.872 24.6163 13.0516 24.6163 12C24.6163 10.9484 23.8287 10.128 23.1349 9.40364ZM22.1902 13.6909C21.6807 14.2211 21.1538 14.7709 20.8811 15.4255C20.6214 16.0516 20.6105 16.7913 20.5996 17.5069C20.5876 18.3185 20.5745 19.1585 20.1742 19.56C19.7738 19.9615 18.9327 19.9735 18.1211 19.9855C17.4054 19.9964 16.6658 20.0073 16.0396 20.2669C15.3851 20.5375 14.8396 21.0644 14.304 21.576C13.7312 22.1215 13.1389 22.6931 12.6142 22.6931C12.0894 22.6931 11.4971 22.1247 10.9232 21.576C10.3931 21.0665 9.84324 20.5396 9.1887 20.2669C8.56252 20.0073 7.82288 19.9964 7.10724 19.9855C6.29561 19.9735 5.45561 19.9604 5.05415 19.56C4.6527 19.1596 4.6407 18.3185 4.6287 17.5069C4.61779 16.7913 4.60688 16.0516 4.34724 15.4255C4.0767 14.7709 3.54979 14.2255 3.03815 13.6898C2.49379 13.1171 1.92542 12.5247 1.92542 12C1.92542 11.4753 2.49379 10.8829 3.04252 10.3091C3.55197 9.77891 4.07888 9.22909 4.35161 8.57454C4.61124 7.94836 4.62215 7.20873 4.63306 6.49309C4.64506 5.68145 4.65815 4.84145 5.05852 4.44C5.45888 4.03855 6.29997 4.02655 7.11161 4.01455C7.82724 4.00364 8.56688 3.99273 9.19306 3.73309C9.84761 3.46255 10.3931 2.93564 10.9287 2.424C11.4992 1.87745 12.0916 1.30909 12.6163 1.30909C13.1411 1.30909 13.7334 1.87745 14.3072 2.42618C14.8374 2.93564 15.3872 3.46255 16.0418 3.73527C16.668 3.99491 17.4076 4.00582 18.1232 4.01673C18.9349 4.02873 19.7749 4.04182 20.1763 4.44218C20.5778 4.84255 20.5898 5.68364 20.6018 6.49527C20.6127 7.21091 20.6236 7.95055 20.8832 8.57673C21.1538 9.23127 21.6807 9.77673 22.1923 10.3124C22.7378 10.8851 23.3094 11.4775 23.3094 12.0022C23.3094 12.5269 22.7389 13.1171 22.1902 13.6909ZM13.7072 17.6727C13.7072 17.8885 13.6433 18.0994 13.5234 18.2788C13.4035 18.4582 13.2331 18.598 13.0338 18.6806C12.8345 18.7632 12.6151 18.7848 12.4035 18.7427C12.1919 18.7006 11.9975 18.5967 11.8449 18.4441C11.6924 18.2916 11.5885 18.0972 11.5464 17.8856C11.5043 17.6739 11.5259 17.4546 11.6085 17.2553C11.691 17.0559 11.8309 16.8855 12.0103 16.7657C12.1897 16.6458 12.4006 16.5818 12.6163 16.5818C12.9057 16.5818 13.1831 16.6968 13.3877 16.9013C13.5923 17.1059 13.7072 17.3834 13.7072 17.6727ZM16.7618 9.81818C16.7618 11.664 15.2465 13.2 13.2709 13.4815V13.7455C13.2709 13.9191 13.2019 14.0855 13.0792 14.2083C12.9564 14.331 12.7899 14.4 12.6163 14.4C12.4427 14.4 12.2763 14.331 12.1535 14.2083C12.0307 14.0855 11.9618 13.9191 11.9618 13.7455V12.8727C11.9618 12.6991 12.0307 12.5326 12.1535 12.4099C12.2763 12.2871 12.4427 12.2182 12.6163 12.2182C14.1807 12.2182 15.4527 11.1415 15.4527 9.81818C15.4527 8.49491 14.1807 7.41818 12.6163 7.41818C11.052 7.41818 9.77997 8.49491 9.77997 9.81818V10.2545C9.77997 10.4281 9.71101 10.5946 9.58826 10.7174C9.46551 10.8401 9.29902 10.9091 9.12542 10.9091C8.95183 10.9091 8.78534 10.8401 8.66259 10.7174C8.53984 10.5946 8.47088 10.4281 8.47088 10.2545V9.81818C8.47088 7.77273 10.3254 6.10909 12.6163 6.10909C14.9072 6.10909 16.7618 7.77273 16.7618 9.81818Z" fill="#FFEDCD"/>
</svg>
