<svg width="25" height="24" viewBox="0 0 25 24" fill="none" xmlns="http://www.w3.org/2000/svg">
<path fill-rule="evenodd" clip-rule="evenodd" d="M5.61633 11C5.61633 7.691 8.30733 5 11.6163 5C14.9253 5 17.6163 7.691 17.6163 11C17.6163 14.309 14.9253 17 11.6163 17C8.30733 17 5.61633 14.309 5.61633 11ZM21.3233 19.293L17.9283 15.897C18.9813 14.543 19.6163 12.846 19.6163 11C19.6163 6.589 16.0273 3 11.6163 3C7.20533 3 3.61633 6.589 3.61633 11C3.61633 15.411 7.20533 19 11.6163 19C13.4623 19 15.1593 18.365 16.5133 17.312L19.9093 20.707C20.1043 20.902 20.3603 21 20.6163 21C20.8723 21 21.1283 20.902 21.3233 20.707C21.7143 20.316 21.7143 19.684 21.3233 19.293Z" fill="white"/>
</svg>
